<?xml version="1.0" encoding="UTF-8"?>
<!DOCTYPE svg PUBLIC "-//W3C//DTD SVG 1.1//EN" "http://www.w3.org/Graphics/SVG/1.1/DTD/svg11.dtd">
<!-- Creator: CorelDRAW X7 -->
<svg xmlns="http://www.w3.org/2000/svg" xml:space="preserve" width="248px" height="57px" version="1.1" style="shape-rendering:geometricPrecision; text-rendering:geometricPrecision; image-rendering:optimizeQuality; fill-rule:evenodd; clip-rule:evenodd"
viewBox="0 0 24800 5704"
 xmlns:xlink="http://www.w3.org/1999/xlink">
 <defs>
  <style type="text/css">
   <![CDATA[
    .fil1 {fill:#2B2A29}
    .fil0 {fill:#D42136}
   ]]>
  </style>
 </defs>
 <g id="Слой_x0020_1">
  <metadata id="CorelCorpID_0Corel-Layer"/>
  <g id="_2233431903088">
   <polygon class="fil0" points="5495,0 24581,0 24581,1935 5495,1935 "/>
   <path class="fil1" d="M5495 3912l0 1792 3399 0c0,0 1,-346 1,-382 0,-34 -22,-48 -50,-48 -26,-1 -2226,0 -2226,0l1 -642 1929 0c0,0 0,-344 0,-375 0,-33 -17,-51 -50,-51 -31,0 -1879,0 -1879,0l0 -655 2274 0c0,0 0,-347 0,-381 0,-35 -22,-45 -50,-45 -26,0 -2566,0 -2566,0 -434,0 -783,353 -783,787l0 0z"/>
   <path class="fil1" d="M10138 3125c0,0 2563,0 2595,0 32,0 51,12 51,45 0,32 0,380 0,380l-2308 0 0 1683 1863 0 0 -601 -1152 0c0,0 0,-350 0,-376 0,-26 18,-49 52,-49 288,0 1470,0 1494,0 26,0 51,22 51,50 0,27 0,1447 0,1447l-3430 0 0 -1792c0,-434 351,-787 784,-787l0 0z"/>
   <path class="fil1" d="M14087 3125c0,0 2563,0 2596,0 32,0 50,12 50,45 0,32 0,380 0,380l-2307 0 0 1683 1863 0 0 -601 -1152 0c0,0 1,-350 1,-375 0,-26 17,-50 50,-50 289,0 1471,0 1495,0 26,0 50,22 50,50 0,27 0,1447 0,1447l-3429 0 0 -1792c0,-435 351,-787 783,-787l0 0z"/>
   <path class="fil1" d="M17256 3912l0 1792 3400 0c0,0 0,-346 0,-382 0,-34 -23,-48 -50,-48 -27,-1 -2227,0 -2227,0l1 -642 1930 0c0,0 0,-344 0,-375 0,-33 -18,-51 -50,-51 -32,0 -1880,0 -1880,0l0 -655 2274 0c0,0 0,-347 0,-381 0,-35 -22,-45 -49,-45 -27,0 -2567,0 -2567,0 -433,0 -782,353 -782,787l0 0z"/>
   <polygon class="fil0" points="0,3125 3743,3125 3743,3606 1755,3606 1755,4169 3743,4169 3743,4666 1764,4666 1764,5225 3743,5225 3743,5704 0,5704 "/>
   <path class="fil1" d="M23903 3125c374,0 678,378 678,754 0,375 -305,753 -680,753l-305 0 1155 981c0,0 114,91 -6,91 -65,0 -1005,0 -1228,0 -51,1 -75,-30 -127,-71 41,27 -1155,-1001 -1155,-1001l0 1072 -1122 0 0 -1792c0,-434 349,-787 782,-787l2008 0zm-153 1084c119,0 290,-124 290,-329 0,-227 -160,-328 -290,-328l-1515 0 0 657 1515 -1 0 1z"/>
  </g>
 </g>
</svg>
