<?xml version="1.0" encoding="UTF-8"?>
<!DOCTYPE svg PUBLIC "-//W3C//DTD SVG 1.1//EN" "http://www.w3.org/Graphics/SVG/1.1/DTD/svg11.dtd">
<svg xmlns="http://www.w3.org/2000/svg" version="1.1" width="512px" height="512px" style="shape-rendering:geometricPrecision; text-rendering:geometricPrecision; image-rendering:optimizeQuality; fill-rule:evenodd; clip-rule:evenodd" xmlns:xlink="http://www.w3.org/1999/xlink">
<g><path style="opacity:0.973" fill="#000000" d="M 305.5,-0.5 C 312.833,-0.5 320.167,-0.5 327.5,-0.5C 421.833,27.8333 483.167,89.1667 511.5,183.5C 511.5,191.167 511.5,198.833 511.5,206.5C 508.873,220.858 503.04,233.858 494,245.5C 464.527,274.973 435.027,304.473 405.5,334C 379.918,354.512 351.584,359.179 320.5,348C 305.234,341.368 290.568,333.702 276.5,325C 270.312,319.1 268.146,311.933 270,303.5C 275.198,291.152 284.364,286.652 297.5,290C 312.052,298.943 327.386,306.276 343.5,312C 354.528,314.181 364.861,312.181 374.5,306C 404.305,277.195 433.805,248.028 463,218.5C 470.894,206.335 472.561,193.335 468,179.5C 441.488,111.322 393.654,65.1555 324.5,41C 310.324,38.6155 297.991,42.2822 287.5,52C 258.608,80.2241 230.441,109.057 203,138.5C 198.817,147.043 197.484,156.043 199,165.5C 205.005,181.201 212.338,196.201 221,210.5C 224.79,219.097 223.79,227.097 218,234.5C 158.667,293.833 99.3333,353.167 40,412.5C 39.5,431.83 39.3334,451.164 39.5,470.5C 55.5,470.5 71.5,470.5 87.5,470.5C 87.3334,456.829 87.5001,443.163 88,429.5C 91.0129,420.733 97.1795,415.9 106.5,415C 118.829,414.5 131.162,414.333 143.5,414.5C 143.333,400.829 143.5,387.163 144,373.5C 145.736,366.763 149.903,362.263 156.5,360C 177.796,358.403 199.129,358.07 220.5,359C 235.191,361.714 241.358,370.547 239,385.5C 236.833,392.333 232.333,396.833 225.5,399C 211.504,399.5 197.504,399.667 183.5,399.5C 183.667,413.504 183.5,427.504 183,441.5C 180.833,448.333 176.333,452.833 169.5,455C 155.504,455.5 141.504,455.667 127.5,455.5C 127.667,469.504 127.5,483.504 127,497.5C 124.648,504.35 120.148,509.017 113.5,511.5C 80.1667,511.5 46.8333,511.5 13.5,511.5C 6.83333,508.833 2.16667,504.167 -0.5,497.5C -0.5,464.167 -0.5,430.833 -0.5,397.5C 0.704964,394.766 2.20496,392.099 4,389.5C 61.3333,332.167 118.667,274.833 176,217.5C 173.962,211.407 171.296,205.407 168,199.5C 152.876,169.025 154.209,139.358 172,110.5C 203.167,78 235,46.1667 267.5,15C 279.032,6.77404 291.699,1.60737 305.5,-0.5 Z"/></g>
<g><path style="opacity:0.967" fill="#000000" d="M 355.5,107.5 C 383.644,106.143 396.81,119.476 395,147.5C 390.02,162.634 379.52,170.968 363.5,172.5C 340.048,168.873 329.548,155.206 332,131.5C 335.752,119.398 343.585,111.398 355.5,107.5 Z"/></g>
</svg>
