<?xml version="1.0" encoding="UTF-8"?>
<!DOCTYPE svg PUBLIC "-//W3C//DTD SVG 1.1//EN" "http://www.w3.org/Graphics/SVG/1.1/DTD/svg11.dtd">
<svg xmlns="http://www.w3.org/2000/svg" version="1.1" width="525px" height="513px" style="shape-rendering:geometricPrecision; text-rendering:geometricPrecision; image-rendering:optimizeQuality; fill-rule:evenodd; clip-rule:evenodd" xmlns:xlink="http://www.w3.org/1999/xlink">
<g><path style="opacity:1" fill="#75a0fd" d="M 406.5,33.5 C 403.5,33.5 400.5,33.5 397.5,33.5C 389.5,33.5 381.5,33.5 373.5,33.5C 365.833,33.5 358.167,33.5 350.5,33.5C 342.833,33.5 335.167,33.5 327.5,33.5C 319.5,33.5 311.5,33.5 303.5,33.5C 295.833,33.5 288.167,33.5 280.5,33.5C 276.167,33.5 271.833,33.5 267.5,33.5C 263.167,33.5 258.833,33.5 254.5,33.5C 249.167,33.5 243.833,33.5 238.5,33.5C 237.167,33.5 235.833,33.5 234.5,33.5C 230.167,33.5 225.833,33.5 221.5,33.5C 217.833,33.5 214.167,33.5 210.5,33.5C 206.833,33.5 203.167,33.5 199.5,33.5C 195.5,33.5 191.5,33.5 187.5,33.5C 184.167,33.5 180.833,33.5 177.5,33.5C 173.833,33.5 170.167,33.5 166.5,33.5C 163.167,33.5 159.833,33.5 156.5,33.5C 152.833,33.5 149.167,33.5 145.5,33.5C 141.486,33.3345 137.486,33.5012 133.5,34C 105.333,64.8333 77.1667,95.6667 49,126.5C 48.5008,131.155 48.3342,135.821 48.5,140.5C 48.5,144.167 48.5,147.833 48.5,151.5C 48.5,155.5 48.5,159.5 48.5,163.5C 48.5,167.167 48.5,170.833 48.5,174.5C 48.5,178.5 48.5,182.5 48.5,186.5C 48.5,190.833 48.5,195.167 48.5,199.5C 48.5,203.5 48.5,207.5 48.5,211.5C 48.5,215.833 48.5,220.167 48.5,224.5C 48.5,229.167 48.5,233.833 48.5,238.5C 48.5,242.5 48.5,246.5 48.5,250.5C 48.5,254.5 48.5,258.5 48.5,262.5C 48.5,266.5 48.5,270.5 48.5,274.5C 48.5,279.5 48.5,284.5 48.5,289.5C 48.5,297.5 48.5,305.5 48.5,313.5C 48.5,322.5 48.5,331.5 48.5,340.5C 48.5,348.833 48.5,357.167 48.5,365.5C 48.5,373.833 48.5,382.167 48.5,390.5C 48.5,391.5 48.5,392.5 48.5,393.5C 47.1684,300.598 47.1684,207.598 48.5,114.5C 50.0174,114.489 51.1841,113.823 52,112.5C 75.3967,86.6091 98.5634,60.6091 121.5,34.5C 125.081,33.7401 128.748,33.2401 132.5,33C 224.001,32.1676 315.334,32.3342 406.5,33.5 Z"/></g>
<g><path style="opacity:1" fill="#1c87fc" d="M 145.5,33.5 C 113.508,69.4915 81.1744,105.158 48.5,140.5C 48.3342,135.821 48.5008,131.155 49,126.5C 77.1667,95.6667 105.333,64.8333 133.5,34C 137.486,33.5012 141.486,33.3345 145.5,33.5 Z"/></g>
<g><path style="opacity:1" fill="#2383fd" d="M 145.5,33.5 C 149.167,33.5 152.833,33.5 156.5,33.5C 120.84,73.159 84.8404,112.492 48.5,151.5C 48.5,147.833 48.5,144.167 48.5,140.5C 81.1744,105.158 113.508,69.4915 145.5,33.5 Z"/></g>
<g><path style="opacity:1" fill="#287ffd" d="M 156.5,33.5 C 159.833,33.5 163.167,33.5 166.5,33.5C 127.508,77.1582 88.1743,120.492 48.5,163.5C 48.5,159.5 48.5,155.5 48.5,151.5C 84.8404,112.492 120.84,73.159 156.5,33.5 Z"/></g>
<g><path style="opacity:1" fill="#2e7bfe" d="M 166.5,33.5 C 170.167,33.5 173.833,33.5 177.5,33.5C 134.84,80.8256 91.8404,127.826 48.5,174.5C 48.5,170.833 48.5,167.167 48.5,163.5C 88.1743,120.492 127.508,77.1582 166.5,33.5 Z"/></g>
<g><path style="opacity:1" fill="#3478fe" d="M 177.5,33.5 C 180.833,33.5 184.167,33.5 187.5,33.5C 141.508,84.825 95.1743,135.825 48.5,186.5C 48.5,182.5 48.5,178.5 48.5,174.5C 91.8404,127.826 134.84,80.8256 177.5,33.5 Z"/></g>
<g><path style="opacity:1" fill="#3b74ff" d="M 187.5,33.5 C 191.5,33.5 195.5,33.5 199.5,33.5C 149.877,89.4577 99.5434,144.791 48.5,199.5C 48.5,195.167 48.5,190.833 48.5,186.5C 95.1743,135.825 141.508,84.825 187.5,33.5 Z"/></g>
<g><path style="opacity:1" fill="#416fff" d="M 199.5,33.5 C 203.167,33.5 206.833,33.5 210.5,33.5C 156.841,93.1585 102.841,152.492 48.5,211.5C 48.5,207.5 48.5,203.5 48.5,199.5C 99.5434,144.791 149.877,89.4577 199.5,33.5 Z"/></g>
<g><path style="opacity:1" fill="#476cff" d="M 210.5,33.5 C 214.167,33.5 217.833,33.5 221.5,33.5C 164.174,97.4914 106.508,161.158 48.5,224.5C 48.5,220.167 48.5,215.833 48.5,211.5C 102.841,152.492 156.841,93.1585 210.5,33.5 Z"/></g>
<g><path style="opacity:1" fill="#4e67ff" d="M 221.5,33.5 C 225.833,33.5 230.167,33.5 234.5,33.5C 173.192,102.442 111.192,170.775 48.5,238.5C 48.5,233.833 48.5,229.167 48.5,224.5C 106.508,161.158 164.174,97.4914 221.5,33.5 Z"/></g>
<g><path style="opacity:1" fill="#5766ff" d="M 234.5,33.5 C 235.833,33.5 237.167,33.5 238.5,33.5C 212.04,63.1294 185.374,92.6294 158.5,122C 159.094,122.464 159.761,122.631 160.5,122.5C 144.891,133.767 133.891,148.433 127.5,166.5C 127.225,164.158 126.392,164.158 125,166.5C 99.6342,194.696 74.1342,222.696 48.5,250.5C 48.5,246.5 48.5,242.5 48.5,238.5C 111.192,170.775 173.192,102.442 234.5,33.5 Z"/></g>
<g><path style="opacity:1" fill="#5a61ff" d="M 238.5,33.5 C 243.833,33.5 249.167,33.5 254.5,33.5C 231.744,59.7614 208.41,85.5947 184.5,111C 185.793,111.49 187.127,111.657 188.5,111.5C 178.781,114.02 169.448,117.687 160.5,122.5C 159.761,122.631 159.094,122.464 158.5,122C 185.374,92.6294 212.04,63.1294 238.5,33.5 Z"/></g>
<g><path style="opacity:1" fill="#6a5cfe" d="M 254.5,33.5 C 258.833,33.5 263.167,33.5 267.5,33.5C 245.433,59.0745 222.766,84.2411 199.5,109C 203.821,109.499 208.154,109.666 212.5,109.5C 219.833,109.5 227.167,109.5 234.5,109.5C 242.833,109.5 251.167,109.5 259.5,109.5C 266.833,109.5 274.167,109.5 281.5,109.5C 289.167,109.5 296.833,109.5 304.5,109.5C 312.5,109.5 320.5,109.5 328.5,109.5C 332.371,109.185 336.038,109.518 339.5,110.5C 289.154,110.204 238.82,110.537 188.5,111.5C 187.127,111.657 185.793,111.49 184.5,111C 208.41,85.5947 231.744,59.7614 254.5,33.5 Z"/></g>
<g><path style="opacity:1" fill="#6755ff" d="M 267.5,33.5 C 271.833,33.5 276.167,33.5 280.5,33.5C 258.204,59.1313 235.537,84.4646 212.5,109.5C 208.154,109.666 203.821,109.499 199.5,109C 222.766,84.2411 245.433,59.0745 267.5,33.5 Z"/></g>
<g><path style="opacity:1" fill="#714eff" d="M 280.5,33.5 C 288.167,33.5 295.833,33.5 303.5,33.5C 280.5,58.8333 257.5,84.1667 234.5,109.5C 227.167,109.5 219.833,109.5 212.5,109.5C 235.537,84.4646 258.204,59.1313 280.5,33.5 Z"/></g>
<g><path style="opacity:1" fill="#7e48fd" d="M 303.5,33.5 C 311.5,33.5 319.5,33.5 327.5,33.5C 304.463,58.5354 281.796,83.8687 259.5,109.5C 251.167,109.5 242.833,109.5 234.5,109.5C 257.5,84.1667 280.5,58.8333 303.5,33.5 Z"/></g>
<g><path style="opacity:1" fill="#8a44f9" d="M 327.5,33.5 C 335.167,33.5 342.833,33.5 350.5,33.5C 327.5,58.8333 304.5,84.1667 281.5,109.5C 274.167,109.5 266.833,109.5 259.5,109.5C 281.796,83.8687 304.463,58.5354 327.5,33.5 Z"/></g>
<g><path style="opacity:1" fill="#9640f5" d="M 350.5,33.5 C 358.167,33.5 365.833,33.5 373.5,33.5C 350.5,58.8333 327.5,84.1667 304.5,109.5C 296.833,109.5 289.167,109.5 281.5,109.5C 304.5,84.1667 327.5,58.8333 350.5,33.5 Z"/></g>
<g><path style="opacity:1" fill="#a33cf1" d="M 373.5,33.5 C 381.5,33.5 389.5,33.5 397.5,33.5C 374.5,58.8333 351.5,84.1667 328.5,109.5C 320.5,109.5 312.5,109.5 304.5,109.5C 327.5,84.1667 350.5,58.8333 373.5,33.5 Z"/></g>
<g><path style="opacity:1" fill="#af39ed" d="M 397.5,33.5 C 400.5,33.5 403.5,33.5 406.5,33.5C 409.939,33.2529 413.272,33.5863 416.5,34.5C 394.433,60.0745 371.766,85.2411 348.5,110C 346.19,110.497 343.857,110.663 341.5,110.5C 340.833,110.5 340.167,110.5 339.5,110.5C 336.038,109.518 332.371,109.185 328.5,109.5C 351.5,84.1667 374.5,58.8333 397.5,33.5 Z"/></g>
<g><path style="opacity:1" fill="#1990fc" d="M 121.5,34.5 C 98.5634,60.6091 75.3967,86.6091 52,112.5C 51.1841,113.823 50.0174,114.489 48.5,114.5C 48.3442,110.236 49.0109,106.236 50.5,102.5C 69.4936,81.1724 88.4936,59.8391 107.5,38.5C 111.805,36.2538 116.471,34.9205 121.5,34.5 Z"/></g>
<g><path style="opacity:1" fill="#b63ce4" d="M 416.5,34.5 C 422.786,35.2375 428.786,36.9042 434.5,39.5C 434.611,40.1174 434.944,40.6174 435.5,41C 412.833,65.6667 390.167,90.3333 367.5,115C 366.207,115.49 364.873,115.657 363.5,115.5C 356.165,113.303 348.832,111.636 341.5,110.5C 343.857,110.663 346.19,110.497 348.5,110C 371.766,85.2411 394.433,60.0745 416.5,34.5 Z"/></g>
<g><path style="opacity:1" fill="#2496fb" d="M 107.5,38.5 C 88.4936,59.8391 69.4936,81.1724 50.5,102.5C 58.2253,71.1089 77.2253,49.7756 107.5,38.5 Z"/></g>
<g><path style="opacity:1" fill="#ba3ddd" d="M 434.5,39.5 C 437.622,40.5612 440.622,41.8946 443.5,43.5C 443.657,44.8734 443.49,46.2068 443,47.5C 423.333,69.1667 403.667,90.8333 384,112.5C 381.234,115.777 378.067,118.443 374.5,120.5C 370.646,119.07 366.979,117.403 363.5,115.5C 364.873,115.657 366.207,115.49 367.5,115C 390.167,90.3333 412.833,65.6667 435.5,41C 434.944,40.6174 434.611,40.1174 434.5,39.5 Z"/></g>
<g><path style="opacity:1" fill="#be3dd7" d="M 443.5,43.5 C 446.167,45.1667 448.833,46.8333 451.5,48.5C 452.028,49.8474 452.195,51.1807 452,52.5C 429.301,77.3632 406.467,102.03 383.5,126.5C 380.32,124.745 377.32,122.745 374.5,120.5C 378.067,118.443 381.234,115.777 384,112.5C 403.667,90.8333 423.333,69.1667 443,47.5C 443.49,46.2068 443.657,44.8734 443.5,43.5 Z"/></g>
<g><path style="opacity:1" fill="#c23ed1" d="M 451.5,48.5 C 454.786,50.4512 457.786,52.7846 460.5,55.5C 460.649,56.552 460.483,57.552 460,58.5C 440,80.5 420,102.5 400,124.5C 397.234,127.777 394.067,130.443 390.5,132.5C 387.553,131.219 385.219,129.219 383.5,126.5C 406.467,102.03 429.301,77.3632 452,52.5C 452.195,51.1807 452.028,49.8474 451.5,48.5 Z"/></g>
<g><path style="opacity:1" fill="#c53fcb" d="M 460.5,55.5 C 463.903,57.8998 466.57,60.8998 468.5,64.5C 466.913,67.2682 465.08,69.9348 463,72.5C 443,94.5 423,116.5 403,138.5C 401.871,140.141 400.371,141.141 398.5,141.5C 395.139,139.105 392.472,136.105 390.5,132.5C 394.067,130.443 397.234,127.777 400,124.5C 420,102.5 440,80.5 460,58.5C 460.483,57.552 460.649,56.552 460.5,55.5 Z"/></g>
<g><path style="opacity:1" fill="#c940c4" d="M 468.5,64.5 C 470.89,65.8908 472.557,67.8908 473.5,70.5C 473.539,71.5832 473.873,72.5832 474.5,73.5C 451.486,99.8438 428.153,125.844 404.5,151.5C 402.11,148.434 400.11,145.1 398.5,141.5C 400.371,141.141 401.871,140.141 403,138.5C 423,116.5 443,94.5 463,72.5C 465.08,69.9348 466.913,67.2682 468.5,64.5 Z"/></g>
<g><path style="opacity:1" fill="#cd42bd" d="M 473.5,70.5 C 477.174,74.5067 479.841,79.1734 481.5,84.5C 479.241,87.9378 476.741,91.2711 474,94.5C 454,116.5 434,138.5 414,160.5C 412.871,162.141 411.371,163.141 409.5,163.5C 407.836,159.504 406.169,155.504 404.5,151.5C 428.153,125.844 451.486,99.8438 474.5,73.5C 473.873,72.5832 473.539,71.5832 473.5,70.5 Z"/></g>
<g><path style="opacity:1" fill="#d341b2" d="M 481.5,84.5 C 482.674,85.5137 483.34,86.847 483.5,88.5C 483.657,89.8734 483.49,91.2068 483,92.5C 460.297,116.868 437.964,141.534 416,166.5C 414.871,168.141 413.371,169.141 411.5,169.5C 410.637,167.579 409.971,165.579 409.5,163.5C 411.371,163.141 412.871,162.141 414,160.5C 434,138.5 454,116.5 474,94.5C 476.741,91.2711 479.241,87.9378 481.5,84.5 Z"/></g>
<g><path style="opacity:1" fill="#d841a8" d="M 483.5,88.5 C 485.74,92.0983 487.074,96.0983 487.5,100.5C 487.046,103.14 485.879,105.473 484,107.5C 460.967,132.697 437.801,157.697 414.5,182.5C 414.167,182.5 413.833,182.5 413.5,182.5C 412.833,178.167 412.167,173.833 411.5,169.5C 413.371,169.141 414.871,168.141 416,166.5C 437.964,141.534 460.297,116.868 483,92.5C 483.49,91.2068 483.657,89.8734 483.5,88.5 Z"/></g>
<g><path style="opacity:1" fill="#dc41a0" d="M 487.5,100.5 C 488.785,103.589 489.451,106.922 489.5,110.5C 486.269,112.22 483.436,114.553 481,117.5C 459.337,142.328 437.17,166.662 414.5,190.5C 414.5,187.833 414.5,185.167 414.5,182.5C 437.801,157.697 460.967,132.697 484,107.5C 485.879,105.473 487.046,103.14 487.5,100.5 Z"/></g>
<g><path style="opacity:1" fill="#df3f99" d="M 489.5,110.5 C 489.5,110.833 489.5,111.167 489.5,111.5C 489.5,113.833 489.5,116.167 489.5,118.5C 486.52,121.144 483.52,123.811 480.5,126.5C 459.196,151.47 437.196,175.803 414.5,199.5C 414.5,196.5 414.5,193.5 414.5,190.5C 437.17,166.662 459.337,142.328 481,117.5C 483.436,114.553 486.269,112.22 489.5,110.5 Z"/></g>
<g><path style="opacity:1" fill="#e23f92" d="M 489.5,118.5 C 489.5,120.833 489.5,123.167 489.5,125.5C 464.868,152.801 439.868,179.801 414.5,206.5C 414.5,204.167 414.5,201.833 414.5,199.5C 437.196,175.803 459.196,151.47 480.5,126.5C 483.52,123.811 486.52,121.144 489.5,118.5 Z"/></g>
<g><path style="opacity:1" fill="#e5408c" d="M 489.5,125.5 C 489.664,128.187 489.497,130.854 489,133.5C 463.932,160.396 439.099,187.396 414.5,214.5C 414.5,211.833 414.5,209.167 414.5,206.5C 439.868,179.801 464.868,152.801 489.5,125.5 Z"/></g>
<g><path style="opacity:1" fill="#e94488" d="M 489.5,111.5 C 490.496,125.657 490.829,139.99 490.5,154.5C 490.167,154.5 489.833,154.5 489.5,154.5C 489.5,152.5 489.5,150.5 489.5,148.5C 489.664,145.813 489.497,143.146 489,140.5C 464.301,168.029 439.468,195.362 414.5,222.5C 414.5,219.833 414.5,217.167 414.5,214.5C 439.099,187.396 463.932,160.396 489,133.5C 489.497,130.854 489.664,128.187 489.5,125.5C 489.5,123.167 489.5,120.833 489.5,118.5C 489.5,116.167 489.5,113.833 489.5,111.5 Z"/></g>
<g><path style="opacity:1" fill="#724fff" d="M 198.5,135.5 C 202.5,135.5 206.5,135.5 210.5,135.5C 190.507,158.159 170.174,180.492 149.5,202.5C 149.5,197.5 149.5,192.5 149.5,187.5C 149.156,182.878 149.823,178.545 151.5,174.5C 154.394,173.118 156.894,171.118 159,168.5C 167.733,158.608 176.233,148.608 184.5,138.5C 188.877,136.266 193.543,135.266 198.5,135.5 Z"/></g>
<g><path style="opacity:1" fill="#7e48fd" d="M 210.5,135.5 C 218.5,135.5 226.5,135.5 234.5,135.5C 206.157,166.874 177.824,198.208 149.5,229.5C 149.5,220.5 149.5,211.5 149.5,202.5C 170.174,180.492 190.507,158.159 210.5,135.5 Z"/></g>
<g><path style="opacity:1" fill="#8a44f9" d="M 234.5,135.5 C 242.167,135.5 249.833,135.5 257.5,135.5C 221.472,175.192 185.472,214.859 149.5,254.5C 149.5,246.167 149.5,237.833 149.5,229.5C 177.824,198.208 206.157,166.874 234.5,135.5 Z"/></g>
<g><path style="opacity:1" fill="#9241f6" d="M 257.5,135.5 C 261.167,135.5 264.833,135.5 268.5,135.5C 229.174,179.492 189.508,223.158 149.5,266.5C 149.5,262.5 149.5,258.5 149.5,254.5C 185.472,214.859 221.472,175.192 257.5,135.5 Z"/></g>
<g><path style="opacity:1" fill="#9b44f5" d="M 268.5,135.5 C 272.5,135.5 276.5,135.5 280.5,135.5C 269.242,148.929 257.409,161.929 245,174.5C 243.441,176.217 242.608,178.217 242.5,180.5C 217.753,190.912 201.42,208.912 193.5,234.5C 193.631,233.761 193.464,233.094 193,232.5C 178.634,248.363 164.134,264.03 149.5,279.5C 149.5,275.167 149.5,270.833 149.5,266.5C 189.508,223.158 229.174,179.492 268.5,135.5 Z"/></g>
<g><path style="opacity:1" fill="#a43df1" d="M 280.5,135.5 C 288.5,135.5 296.5,135.5 304.5,135.5C 293.076,149.096 281.076,162.262 268.5,175C 265.635,175.183 262.969,175.683 260.5,176.5C 254.528,177.826 248.528,179.159 242.5,180.5C 242.608,178.217 243.441,176.217 245,174.5C 257.409,161.929 269.242,148.929 280.5,135.5 Z"/></g>
<g><path style="opacity:1" fill="#af3bed" d="M 304.5,135.5 C 311.508,135.334 318.508,135.5 325.5,136C 315.63,146.201 306.13,156.701 297,167.5C 293.571,171.439 289.737,174.772 285.5,177.5C 277.191,176.712 268.858,176.379 260.5,176.5C 262.969,175.683 265.635,175.183 268.5,175C 281.076,162.262 293.076,149.096 304.5,135.5 Z"/></g>
<g><path style="opacity:1" fill="#bb4de7" d="M 198.5,135.5 C 245.332,134.335 292.332,134.168 339.5,135C 342.036,135.186 344.369,135.686 346.5,136.5C 346.649,137.552 346.483,138.552 346,139.5C 332.301,154.696 318.467,169.696 304.5,184.5C 298.158,181.944 291.824,179.611 285.5,177.5C 289.737,174.772 293.571,171.439 297,167.5C 306.13,156.701 315.63,146.201 325.5,136C 318.508,135.5 311.508,135.334 304.5,135.5C 296.5,135.5 288.5,135.5 280.5,135.5C 276.5,135.5 272.5,135.5 268.5,135.5C 264.833,135.5 261.167,135.5 257.5,135.5C 249.833,135.5 242.167,135.5 234.5,135.5C 226.5,135.5 218.5,135.5 210.5,135.5C 206.5,135.5 202.5,135.5 198.5,135.5 Z"/></g>
<g><path style="opacity:1" fill="#bb3fde" d="M 346.5,136.5 C 350.162,136.723 353.495,137.723 356.5,139.5C 356.392,141.783 355.559,143.783 354,145.5C 347.846,151.142 342.346,157.142 337.5,163.5C 335.804,165.525 334.137,167.525 332.5,169.5C 326.979,175.279 321.313,181.113 315.5,187C 314.584,187.374 313.75,187.874 313,188.5C 312.329,187.748 311.496,187.414 310.5,187.5C 308.181,187.008 306.181,186.008 304.5,184.5C 318.467,169.696 332.301,154.696 346,139.5C 346.483,138.552 346.649,137.552 346.5,136.5 Z"/></g>
<g><path style="opacity:1" fill="#735eff" d="M 184.5,138.5 C 176.233,148.608 167.733,158.608 159,168.5C 156.894,171.118 154.394,173.118 151.5,174.5C 156.23,156.77 167.23,144.77 184.5,138.5 Z"/></g>
<g><path style="opacity:1" fill="#eb4080" d="M 489.5,148.5 C 464.5,175.833 439.5,203.167 414.5,230.5C 414.5,227.833 414.5,225.167 414.5,222.5C 439.468,195.362 464.301,168.029 489,140.5C 489.497,143.146 489.664,145.813 489.5,148.5 Z"/></g>
<g><path style="opacity:1" fill="#c245d5" d="M 356.5,139.5 C 363.281,141.952 368.948,145.952 373.5,151.5C 370.217,157.783 365.55,162.783 359.5,166.5C 352.819,161.163 345.486,160.163 337.5,163.5C 342.346,157.142 347.846,151.142 354,145.5C 355.559,143.783 356.392,141.783 356.5,139.5 Z"/></g>
<g><path style="opacity:1" fill="#ef4079" d="M 489.5,148.5 C 489.5,150.5 489.5,152.5 489.5,154.5C 489.649,155.552 489.483,156.552 489,157.5C 463.965,184.2 439.298,211.2 415,238.5C 414.503,235.854 414.336,233.187 414.5,230.5C 439.5,203.167 464.5,175.833 489.5,148.5 Z"/></g>
<g><path style="opacity:1" fill="#f5577d" d="M 489.5,154.5 C 489.833,154.5 490.167,154.5 490.5,154.5C 490.5,169.5 490.5,184.5 490.5,199.5C 490.167,199.5 489.833,199.5 489.5,199.5C 489.5,195.833 489.5,192.167 489.5,188.5C 489.5,186.167 489.5,183.833 489.5,181.5C 489.5,178.5 489.5,175.5 489.5,172.5C 489.664,169.813 489.497,167.146 489,164.5C 464.333,191.833 439.667,219.167 415,246.5C 414.503,248.81 414.337,251.143 414.5,253.5C 414.5,256.5 414.5,259.5 414.5,262.5C 414.5,265.167 414.5,267.833 414.5,270.5C 414.5,276.5 414.5,282.5 414.5,288.5C 414.5,291.833 414.5,295.167 414.5,298.5C 414.5,301.167 414.5,303.833 414.5,306.5C 414.5,309.5 414.5,312.5 414.5,315.5C 414.813,319.042 414.479,322.375 413.5,325.5C 413.5,277.833 413.5,230.167 413.5,182.5C 413.833,182.5 414.167,182.5 414.5,182.5C 414.5,185.167 414.5,187.833 414.5,190.5C 414.5,193.5 414.5,196.5 414.5,199.5C 414.5,201.833 414.5,204.167 414.5,206.5C 414.5,209.167 414.5,211.833 414.5,214.5C 414.5,217.167 414.5,219.833 414.5,222.5C 414.5,225.167 414.5,227.833 414.5,230.5C 414.336,233.187 414.503,235.854 415,238.5C 439.298,211.2 463.965,184.2 489,157.5C 489.483,156.552 489.649,155.552 489.5,154.5 Z"/></g>
<g><path style="opacity:1" fill="#c944c8" d="M 373.5,151.5 C 379.763,156.349 383.763,162.683 385.5,170.5C 384.25,172.932 382.75,175.266 381,177.5C 367.947,192.289 354.447,206.623 340.5,220.5C 336.669,214.184 332.335,208.184 327.5,202.5C 330.724,199.782 333.891,196.782 337,193.5C 337.483,192.552 337.649,191.552 337.5,190.5C 351.137,196.348 359.804,192.015 363.5,177.5C 362.926,173.523 361.592,169.856 359.5,166.5C 365.55,162.783 370.217,157.783 373.5,151.5 Z"/></g>
<g><path style="opacity:1" fill="#5c60ff" d="M 127.5,166.5 C 126.601,172.315 125.601,177.982 124.5,183.5C 124.649,182.448 124.483,181.448 124,180.5C 99.0496,208.097 73.8829,235.43 48.5,262.5C 48.5,258.5 48.5,254.5 48.5,250.5C 74.1342,222.696 99.6342,194.696 125,166.5C 126.392,164.158 127.225,164.158 127.5,166.5 Z"/></g>
<g><path style="opacity:1" fill="#f5406d" d="M 489.5,172.5 C 464.732,199.69 439.732,226.69 414.5,253.5C 414.337,251.143 414.503,248.81 415,246.5C 439.667,219.167 464.333,191.833 489,164.5C 489.497,167.146 489.664,169.813 489.5,172.5 Z"/></g>
<g><path style="opacity:1" fill="#c145d7" d="M 332.5,169.5 C 329.303,177.708 330.969,184.708 337.5,190.5C 337.649,191.552 337.483,192.552 337,193.5C 333.891,196.782 330.724,199.782 327.5,202.5C 322.13,197.128 316.463,192.128 310.5,187.5C 311.496,187.414 312.329,187.748 313,188.5C 313.75,187.874 314.584,187.374 315.5,187C 321.313,181.113 326.979,175.279 332.5,169.5 Z"/></g>
<g><path style="opacity:1" fill="#cc42bf" d="M 385.5,170.5 C 387.074,172.102 387.741,174.102 387.5,176.5C 387.662,178.527 387.495,180.527 387,182.5C 374,196.833 361,211.167 348,225.5C 346.871,227.141 345.371,228.141 343.5,228.5C 341.94,226.046 340.94,223.38 340.5,220.5C 354.447,206.623 367.947,192.289 381,177.5C 382.75,175.266 384.25,172.932 385.5,170.5 Z"/></g>
<g><path style="opacity:1" fill="#f84067" d="M 489.5,172.5 C 489.5,175.5 489.5,178.5 489.5,181.5C 486.853,183.811 484.186,186.144 481.5,188.5C 459.863,213.804 437.529,238.47 414.5,262.5C 414.5,259.5 414.5,256.5 414.5,253.5C 439.732,226.69 464.732,199.69 489.5,172.5 Z"/></g>
<g><path style="opacity:1" fill="#605aff" d="M 124.5,183.5 C 124.5,191.167 124.5,198.833 124.5,206.5C 123.675,202.353 123.175,198.019 123,193.5C 98.6689,220.996 73.8355,247.996 48.5,274.5C 48.5,270.5 48.5,266.5 48.5,262.5C 73.8829,235.43 99.0496,208.097 124,180.5C 124.483,181.448 124.649,182.448 124.5,183.5 Z"/></g>
<g><path style="opacity:1" fill="#fb4060" d="M 489.5,181.5 C 489.5,183.833 489.5,186.167 489.5,188.5C 464.5,215.833 439.5,243.167 414.5,270.5C 414.5,267.833 414.5,265.167 414.5,262.5C 437.529,238.47 459.863,213.804 481.5,188.5C 484.186,186.144 486.853,183.811 489.5,181.5 Z"/></g>
<g><path style="opacity:1" fill="#d241b4" d="M 387.5,176.5 C 388.451,177.919 388.784,179.585 388.5,181.5C 388.5,186.5 388.5,191.5 388.5,196.5C 374.866,210.97 361.366,225.637 348,240.5C 347.617,239.944 347.117,239.611 346.5,239.5C 345.656,235.789 344.656,232.123 343.5,228.5C 345.371,228.141 346.871,227.141 348,225.5C 361,211.167 374,196.833 387,182.5C 387.495,180.527 387.662,178.527 387.5,176.5 Z"/></g>
<g><path style="opacity:1" fill="#fe4358" d="M 489.5,188.5 C 489.5,192.167 489.5,195.833 489.5,199.5C 489.5,201.833 489.5,204.167 489.5,206.5C 464.5,233.833 439.5,261.167 414.5,288.5C 414.5,282.5 414.5,276.5 414.5,270.5C 439.5,243.167 464.5,215.833 489.5,188.5 Z"/></g>
<g><path style="opacity:1" fill="#6755ff" d="M 124.5,206.5 C 124.5,210.5 124.5,214.5 124.5,218.5C 123.677,215.023 123.177,211.356 123,207.5C 98.3009,235.029 73.4675,262.362 48.5,289.5C 48.5,284.5 48.5,279.5 48.5,274.5C 73.8355,247.996 98.6689,220.996 123,193.5C 123.175,198.019 123.675,202.353 124.5,206.5 Z"/></g>
<g><path style="opacity:1" fill="#b33deb" d="M 262.5,203.5 C 265.518,203.335 268.518,203.502 271.5,204C 255.297,221.201 239.464,238.701 224,256.5C 222.223,258.79 220.056,260.457 217.5,261.5C 215.389,238.67 224.055,221.17 243.5,209C 249.472,205.842 255.806,204.008 262.5,203.5 Z"/></g>
<g><path style="opacity:1" fill="#b73ee4" d="M 262.5,203.5 C 270.329,201.941 277.996,202.607 285.5,205.5C 264.507,229.159 243.174,252.492 221.5,275.5C 218.944,271.288 217.61,266.622 217.5,261.5C 220.056,260.457 222.223,258.79 224,256.5C 239.464,238.701 255.297,221.201 271.5,204C 268.518,203.502 265.518,203.335 262.5,203.5 Z"/></g>
<g><path style="opacity:1" fill="#d840a7" d="M 388.5,196.5 C 388.5,201.833 388.5,207.167 388.5,212.5C 375.199,226.637 362.033,240.971 349,255.5C 348.819,252.305 348.319,249.305 347.5,246.5C 347.326,244.139 346.993,241.806 346.5,239.5C 347.117,239.611 347.617,239.944 348,240.5C 361.366,225.637 374.866,210.97 388.5,196.5 Z"/></g>
<g><path style="opacity:1" fill="#ba3cdd" d="M 285.5,205.5 C 288.38,205.94 291.046,206.94 293.5,208.5C 293.657,209.873 293.49,211.207 293,212.5C 270.967,236.696 248.801,260.696 226.5,284.5C 224.076,281.992 222.41,278.992 221.5,275.5C 243.174,252.492 264.507,229.159 285.5,205.5 Z"/></g>
<g><path style="opacity:1" fill="#be3dd7" d="M 293.5,208.5 C 296.672,210.252 299.672,212.252 302.5,214.5C 302.649,215.552 302.483,216.552 302,217.5C 279.5,242 257,266.5 234.5,291C 233.552,291.483 232.552,291.649 231.5,291.5C 229.42,289.427 227.754,287.093 226.5,284.5C 248.801,260.696 270.967,236.696 293,212.5C 293.49,211.207 293.657,209.873 293.5,208.5 Z"/></g>
<g><path style="opacity:1" fill="#fd4e50" d="M 489.5,206.5 C 489.5,209.833 489.5,213.167 489.5,216.5C 464.5,243.833 439.5,271.167 414.5,298.5C 414.5,295.167 414.5,291.833 414.5,288.5C 439.5,261.167 464.5,233.833 489.5,206.5 Z"/></g>
<g><path style="opacity:1" fill="#fd544b" d="M 489.5,216.5 C 489.665,219.518 489.498,222.518 489,225.5C 464.616,252.953 439.783,279.953 414.5,306.5C 414.5,303.833 414.5,301.167 414.5,298.5C 439.5,271.167 464.5,243.833 489.5,216.5 Z"/></g>
<g><path style="opacity:1" fill="#714efe" d="M 124.5,218.5 C 124.5,228.167 124.5,237.833 124.5,247.5C 124.167,247.5 123.833,247.5 123.5,247.5C 123.666,242.489 123.499,237.489 123,232.5C 97.9324,259.396 73.0991,286.396 48.5,313.5C 48.5,305.5 48.5,297.5 48.5,289.5C 73.4675,262.362 98.3009,235.029 123,207.5C 123.177,211.356 123.677,215.023 124.5,218.5 Z"/></g>
<g><path style="opacity:1" fill="#c23ed1" d="M 302.5,214.5 C 304.833,216.167 306.833,218.167 308.5,220.5C 309.028,221.847 309.195,223.181 309,224.5C 286.301,249.363 263.467,274.03 240.5,298.5C 237.208,296.542 234.208,294.209 231.5,291.5C 232.552,291.649 233.552,291.483 234.5,291C 257,266.5 279.5,242 302,217.5C 302.483,216.552 302.649,215.552 302.5,214.5 Z"/></g>
<g><path style="opacity:1" fill="#df459d" d="M 388.5,212.5 C 388.666,218.176 388.499,223.843 388,229.5C 374.333,244.5 360.667,259.5 347,274.5C 346.517,273.552 346.351,272.552 346.5,271.5C 347.332,263.195 347.665,254.862 347.5,246.5C 348.319,249.305 348.819,252.305 349,255.5C 362.033,240.971 375.199,226.637 388.5,212.5 Z"/></g>
<g><path style="opacity:1" fill="#c53fcb" d="M 308.5,220.5 C 312.01,223.358 314.343,227.024 315.5,231.5C 315.392,233.783 314.559,235.783 313,237.5C 293.167,259.167 273.333,280.833 253.5,302.5C 252.675,303.386 251.675,303.719 250.5,303.5C 246.58,302.873 243.247,301.207 240.5,298.5C 263.467,274.03 286.301,249.363 309,224.5C 309.195,223.181 309.028,221.847 308.5,220.5 Z"/></g>
<g><path style="opacity:1" fill="#fc5d4a" d="M 489.5,199.5 C 489.833,199.5 490.167,199.5 490.5,199.5C 490.5,215.5 490.5,231.5 490.5,247.5C 490.167,247.5 489.833,247.5 489.5,247.5C 489.666,242.821 489.499,238.155 489,233.5C 464.301,261.029 439.468,288.362 414.5,315.5C 414.5,312.5 414.5,309.5 414.5,306.5C 439.783,279.953 464.616,252.953 489,225.5C 489.498,222.518 489.665,219.518 489.5,216.5C 489.5,213.167 489.5,209.833 489.5,206.5C 489.5,204.167 489.5,201.833 489.5,199.5 Z"/></g>
<g><path style="opacity:1" fill="#c940c4" d="M 315.5,231.5 C 317.794,234.37 319.128,237.703 319.5,241.5C 319.657,242.873 319.49,244.207 319,245.5C 302.63,262.868 286.63,280.534 271,298.5C 268.234,301.777 265.067,304.443 261.5,306.5C 257.43,306.568 253.763,305.568 250.5,303.5C 251.675,303.719 252.675,303.386 253.5,302.5C 273.333,280.833 293.167,259.167 313,237.5C 314.559,235.783 315.392,233.783 315.5,231.5 Z"/></g>
<g><path style="opacity:1" fill="#e64c93" d="M 388.5,181.5 C 389.833,230.167 389.833,278.833 388.5,327.5C 388.5,324.167 388.5,320.833 388.5,317.5C 388.5,311.5 388.5,305.5 388.5,299.5C 388.5,297.167 388.5,294.833 388.5,292.5C 388.5,289.5 388.5,286.5 388.5,283.5C 388.5,280.833 388.5,278.167 388.5,275.5C 388.5,273.167 388.5,270.833 388.5,268.5C 388.5,265.833 388.5,263.167 388.5,260.5C 388.5,257.5 388.5,254.5 388.5,251.5C 388.663,249.143 388.497,246.81 388,244.5C 348.996,287.67 309.829,330.67 270.5,373.5C 269.5,373.5 268.5,373.5 267.5,373.5C 264.15,373.665 260.817,373.498 257.5,373C 267.595,361.233 278.095,349.733 289,338.5C 289.606,335.452 291.106,332.952 293.5,331C 292.906,330.536 292.239,330.369 291.5,330.5C 319.871,320.131 338.204,300.465 346.5,271.5C 346.351,272.552 346.517,273.552 347,274.5C 360.667,259.5 374.333,244.5 388,229.5C 388.499,223.843 388.666,218.176 388.5,212.5C 388.5,207.167 388.5,201.833 388.5,196.5C 388.5,191.5 388.5,186.5 388.5,181.5 Z"/></g>
<g><path style="opacity:1" fill="#fb6341" d="M 489.5,247.5 C 464.484,275.18 439.151,302.514 413.5,329.5C 413.5,328.167 413.5,326.833 413.5,325.5C 414.479,322.375 414.813,319.042 414.5,315.5C 439.468,288.362 464.301,261.029 489,233.5C 489.499,238.155 489.666,242.821 489.5,247.5 Z"/></g>
<g><path style="opacity:1" fill="#7e48fd" d="M 123.5,247.5 C 124.127,252.52 123.294,257.187 121,261.5C 96.5989,287.729 72.4323,314.063 48.5,340.5C 48.5,331.5 48.5,322.5 48.5,313.5C 73.0991,286.396 97.9324,259.396 123,232.5C 123.499,237.489 123.666,242.489 123.5,247.5 Z"/></g>
<g><path style="opacity:1" fill="#e84086" d="M 388.5,251.5 C 351.735,292.104 314.735,332.604 277.5,373C 275.19,373.497 272.857,373.663 270.5,373.5C 309.829,330.67 348.996,287.67 388,244.5C 388.497,246.81 388.663,249.143 388.5,251.5 Z"/></g>
<g><path style="opacity:1" fill="#ce43be" d="M 319.5,241.5 C 321.665,248.997 321.999,256.664 320.5,264.5C 318.284,265.203 316.451,266.536 315,268.5C 305.369,279.799 295.369,290.799 285,301.5C 284.209,302.745 283.709,304.078 283.5,305.5C 276.137,307.587 268.803,307.92 261.5,306.5C 265.067,304.443 268.234,301.777 271,298.5C 286.63,280.534 302.63,262.868 319,245.5C 319.49,244.207 319.657,242.873 319.5,241.5 Z"/></g>
<g><path style="opacity:1" fill="#a33df1" d="M 193.5,234.5 C 193.089,238.221 192.422,241.888 191.5,245.5C 190.673,250.651 190.173,255.984 190,261.5C 176.667,276.167 163.333,290.833 150,305.5C 149.5,296.84 149.334,288.173 149.5,279.5C 164.134,264.03 178.634,248.363 193,232.5C 193.464,233.094 193.631,233.761 193.5,234.5 Z"/></g>
<g><path style="opacity:1" fill="#ec4280" d="M 388.5,251.5 C 388.5,254.5 388.5,257.5 388.5,260.5C 355.117,296.237 321.95,332.237 289,368.5C 288.215,370.286 287.049,371.786 285.5,373C 287.81,373.497 290.143,373.663 292.5,373.5C 294.833,373.5 297.167,373.5 299.5,373.5C 301.099,373.232 302.432,373.566 303.5,374.5C 291.5,374.5 279.5,374.5 267.5,374.5C 267.5,374.167 267.5,373.833 267.5,373.5C 268.5,373.5 269.5,373.5 270.5,373.5C 272.857,373.663 275.19,373.497 277.5,373C 314.735,332.604 351.735,292.104 388.5,251.5 Z"/></g>
<g><path style="opacity:1" fill="#fb6d3b" d="M 489.5,247.5 C 489.5,252.167 489.5,256.833 489.5,261.5C 463.35,289.76 437.183,318.093 411,346.5C 410.536,345.906 410.369,345.239 410.5,344.5C 411.35,339.44 412.35,334.44 413.5,329.5C 439.151,302.514 464.484,275.18 489.5,247.5 Z"/></g>
<g><path style="opacity:1" fill="#ef4079" d="M 388.5,260.5 C 388.5,263.167 388.5,265.833 388.5,268.5C 356.276,303.269 324.276,338.269 292.5,373.5C 290.143,373.663 287.81,373.497 285.5,373C 287.049,371.786 288.215,370.286 289,368.5C 321.95,332.237 355.117,296.237 388.5,260.5 Z"/></g>
<g><path style="opacity:1" fill="#fa7437" d="M 489.5,261.5 C 489.5,264.167 489.5,266.833 489.5,269.5C 461.163,299.672 433.33,330.339 406,361.5C 403.894,364.118 401.394,366.118 398.5,367.5C 403.312,360.208 407.312,352.542 410.5,344.5C 410.369,345.239 410.536,345.906 411,346.5C 437.183,318.093 463.35,289.76 489.5,261.5 Z"/></g>
<g><path style="opacity:1" fill="#d64eb6" d="M 320.5,264.5 C 316.234,285.433 303.901,299.1 283.5,305.5C 283.709,304.078 284.209,302.745 285,301.5C 295.369,290.799 305.369,279.799 315,268.5C 316.451,266.536 318.284,265.203 320.5,264.5 Z"/></g>
<g><path style="opacity:1" fill="#f24073" d="M 388.5,268.5 C 388.5,270.833 388.5,273.167 388.5,275.5C 358.862,308.141 329.195,340.808 299.5,373.5C 297.167,373.5 294.833,373.5 292.5,373.5C 324.276,338.269 356.276,303.269 388.5,268.5 Z"/></g>
<g><path style="opacity:1" fill="#8a44f9" d="M 123.5,247.5 C 123.833,247.5 124.167,247.5 124.5,247.5C 124.5,260.5 124.5,273.5 124.5,286.5C 124.167,286.5 123.833,286.5 123.5,286.5C 123.741,283.001 122.908,282.668 121,285.5C 96.9676,312.362 72.8009,339.029 48.5,365.5C 48.5,357.167 48.5,348.833 48.5,340.5C 72.4323,314.063 96.5989,287.729 121,261.5C 123.294,257.187 124.127,252.52 123.5,247.5 Z"/></g>
<g><path style="opacity:1" fill="#f97a31" d="M 489.5,269.5 C 489.665,272.518 489.498,275.518 489,278.5C 429.293,344.037 369.793,409.704 310.5,475.5C 307.833,475.5 305.167,475.5 302.5,475.5C 330.127,444.704 357.96,414.037 386,383.5C 386.692,382.563 386.525,381.897 385.5,381.5C 389.861,376.807 394.195,372.141 398.5,367.5C 401.394,366.118 403.894,364.118 406,361.5C 433.33,330.339 461.163,299.672 489.5,269.5 Z"/></g>
<g><path style="opacity:1" fill="#b852f0" d="M 149.5,187.5 C 149.5,192.5 149.5,197.5 149.5,202.5C 149.5,211.5 149.5,220.5 149.5,229.5C 149.5,237.833 149.5,246.167 149.5,254.5C 149.5,258.5 149.5,262.5 149.5,266.5C 149.5,270.833 149.5,275.167 149.5,279.5C 149.334,288.173 149.5,296.84 150,305.5C 163.333,290.833 176.667,276.167 190,261.5C 190.173,255.984 190.673,250.651 191.5,245.5C 191.17,255.581 191.837,265.581 193.5,275.5C 193.286,277.144 193.62,278.644 194.5,280C 180,295.833 165.5,311.667 151,327.5C 150.617,326.944 150.117,326.611 149.5,326.5C 148.184,280.02 148.184,233.687 149.5,187.5 Z"/></g>
<g><path style="opacity:1" fill="#f5446e" d="M 388.5,275.5 C 388.5,278.167 388.5,280.833 388.5,283.5C 361.033,313.137 333.699,342.971 306.5,373C 309.146,373.497 311.813,373.664 314.5,373.5C 316.833,373.5 319.167,373.5 321.5,373.5C 326.833,373.5 332.167,373.5 337.5,373.5C 339.5,373.5 341.5,373.5 343.5,373.5C 330.344,374.496 317.01,374.829 303.5,374.5C 302.432,373.566 301.099,373.232 299.5,373.5C 329.195,340.808 358.862,308.141 388.5,275.5 Z"/></g>
<g><path style="opacity:1" fill="#f9802e" d="M 489.5,247.5 C 489.833,247.5 490.167,247.5 490.5,247.5C 490.5,262.5 490.5,277.5 490.5,292.5C 490.167,292.5 489.833,292.5 489.5,292.5C 489.657,291.127 489.49,289.793 489,288.5C 431.924,350.405 375.424,412.738 319.5,475.5C 316.5,475.5 313.5,475.5 310.5,475.5C 369.793,409.704 429.293,344.037 489,278.5C 489.498,275.518 489.665,272.518 489.5,269.5C 489.5,266.833 489.5,264.167 489.5,261.5C 489.5,256.833 489.5,252.167 489.5,247.5 Z"/></g>
<g><path style="opacity:1" fill="#b53de8" d="M 193.5,275.5 C 195.342,279.68 197.008,284.013 198.5,288.5C 198.649,289.552 198.483,290.552 198,291.5C 184.667,306.167 171.333,320.833 158,335.5C 156.549,337.464 154.716,338.797 152.5,339.5C 150.718,335.371 149.718,331.038 149.5,326.5C 150.117,326.611 150.617,326.944 151,327.5C 165.5,311.667 180,295.833 194.5,280C 193.62,278.644 193.286,277.144 193.5,275.5 Z"/></g>
<g><path style="opacity:1" fill="#f84067" d="M 388.5,283.5 C 388.5,286.5 388.5,289.5 388.5,292.5C 386.186,294.477 383.853,296.477 381.5,298.5C 359.523,323.811 337.189,348.811 314.5,373.5C 311.813,373.664 309.146,373.497 306.5,373C 333.699,342.971 361.033,313.137 388.5,283.5 Z"/></g>
<g><path style="opacity:1" fill="#f88627" d="M 489.5,292.5 C 489.5,293.833 489.5,295.167 489.5,296.5C 434.801,355.59 380.801,415.257 327.5,475.5C 324.833,475.5 322.167,475.5 319.5,475.5C 375.424,412.738 431.924,350.405 489,288.5C 489.49,289.793 489.657,291.127 489.5,292.5 Z"/></g>
<g><path style="opacity:1" fill="#fb4060" d="M 388.5,292.5 C 388.5,294.833 388.5,297.167 388.5,299.5C 366.195,324.141 343.862,348.808 321.5,373.5C 319.167,373.5 316.833,373.5 314.5,373.5C 337.189,348.811 359.523,323.811 381.5,298.5C 383.853,296.477 386.186,294.477 388.5,292.5 Z"/></g>
<g><path style="opacity:1" fill="#9640f5" d="M 123.5,286.5 C 123.666,294.174 123.5,301.841 123,309.5C 97.9324,336.396 73.0991,363.396 48.5,390.5C 48.5,382.167 48.5,373.833 48.5,365.5C 72.8009,339.029 96.9676,312.362 121,285.5C 122.908,282.668 123.741,283.001 123.5,286.5 Z"/></g>
<g><path style="opacity:1" fill="#ba3ddf" d="M 198.5,288.5 C 201.245,293.658 204.245,298.658 207.5,303.5C 207.046,306.14 205.879,308.473 204,310.5C 190.833,324.833 177.667,339.167 164.5,353.5C 163.675,354.386 162.675,354.719 161.5,354.5C 157.31,350.289 154.31,345.289 152.5,339.5C 154.716,338.797 156.549,337.464 158,335.5C 171.333,320.833 184.667,306.167 198,291.5C 198.483,290.552 198.649,289.552 198.5,288.5 Z"/></g>
<g><path style="opacity:1" fill="#f78c23" d="M 489.5,296.5 C 489.5,299.5 489.5,302.5 489.5,305.5C 437.862,362.141 386.195,418.807 334.5,475.5C 332.167,475.5 329.833,475.5 327.5,475.5C 380.801,415.257 434.801,355.59 489.5,296.5 Z"/></g>
<g><path style="opacity:1" fill="#f7921f" d="M 489.5,305.5 C 489.5,308.167 489.5,310.833 489.5,313.5C 440.042,367.081 391.042,421.081 342.5,475.5C 339.833,475.5 337.167,475.5 334.5,475.5C 386.195,418.807 437.862,362.141 489.5,305.5 Z"/></g>
<g><path style="opacity:1" fill="#fe4557" d="M 388.5,299.5 C 388.5,305.5 388.5,311.5 388.5,317.5C 371.528,336.141 354.528,354.807 337.5,373.5C 332.167,373.5 326.833,373.5 321.5,373.5C 343.862,348.808 366.195,324.141 388.5,299.5 Z"/></g>
<g><path style="opacity:1" fill="#c03ed4" d="M 207.5,303.5 C 211.845,308.844 216.845,313.511 222.5,317.5C 221.928,319.255 221.094,320.922 220,322.5C 206.667,337.167 193.333,351.833 180,366.5C 179.329,367.252 178.496,367.586 177.5,367.5C 171.002,364.675 165.669,360.342 161.5,354.5C 162.675,354.719 163.675,354.386 164.5,353.5C 177.667,339.167 190.833,324.833 204,310.5C 205.879,308.473 207.046,306.14 207.5,303.5 Z"/></g>
<g><path style="opacity:1" fill="#f7981c" d="M 489.5,313.5 C 489.664,316.187 489.497,318.854 489,321.5C 442.293,372.704 395.793,424.037 349.5,475.5C 347.167,475.5 344.833,475.5 342.5,475.5C 391.042,421.081 440.042,367.081 489.5,313.5 Z"/></g>
<g><path style="opacity:1" fill="#c540cb" d="M 222.5,317.5 C 225.871,319.846 229.204,322.179 232.5,324.5C 219.82,339.812 206.653,354.812 193,369.5C 191.211,371.229 189.044,371.896 186.5,371.5C 183.088,370.958 180.088,369.625 177.5,367.5C 178.496,367.586 179.329,367.252 180,366.5C 193.333,351.833 206.667,337.167 220,322.5C 221.094,320.922 221.928,319.255 222.5,317.5 Z"/></g>
<g><path style="opacity:1" fill="#fd5251" d="M 388.5,317.5 C 388.5,320.833 388.5,324.167 388.5,327.5C 388.416,331.837 387.416,335.837 385.5,339.5C 376.562,349.775 367.228,359.775 357.5,369.5C 353.206,371.816 348.54,373.15 343.5,373.5C 341.5,373.5 339.5,373.5 337.5,373.5C 354.528,354.807 371.528,336.141 388.5,317.5 Z"/></g>
<g><path style="opacity:1" fill="#f8a01d" d="M 489.5,292.5 C 489.833,292.5 490.167,292.5 490.5,292.5C 490.5,306.167 490.5,319.833 490.5,333.5C 490.167,333.5 489.833,333.5 489.5,333.5C 489.66,331.801 489.494,330.134 489,328.5C 444.493,377.532 399.993,426.532 355.5,475.5C 353.5,475.5 351.5,475.5 349.5,475.5C 395.793,424.037 442.293,372.704 489,321.5C 489.497,318.854 489.664,316.187 489.5,313.5C 489.5,310.833 489.5,308.167 489.5,305.5C 489.5,302.5 489.5,299.5 489.5,296.5C 489.5,295.167 489.5,293.833 489.5,292.5 Z"/></g>
<g><path style="opacity:1" fill="#a33df1" d="M 123.5,286.5 C 123.833,286.5 124.167,286.5 124.5,286.5C 124.5,299.5 124.5,312.5 124.5,325.5C 124.665,328.518 124.498,331.518 124,334.5C 101.63,358.535 79.6302,382.868 58,407.5C 56.2228,409.79 54.0562,411.457 51.5,412.5C 49.3447,406.383 48.3447,400.05 48.5,393.5C 48.5,392.5 48.5,391.5 48.5,390.5C 73.0991,363.396 97.9324,336.396 123,309.5C 123.5,301.841 123.666,294.174 123.5,286.5 Z"/></g>
<g><path style="opacity:1" fill="#cb41c1" d="M 232.5,324.5 C 237.761,326.698 243.094,328.698 248.5,330.5C 248.918,331.222 249.584,331.722 250.5,332C 237.959,345.704 225.626,359.538 213.5,373.5C 207.5,373.5 201.5,373.5 195.5,373.5C 192.219,373.58 189.219,372.913 186.5,371.5C 189.044,371.896 191.211,371.229 193,369.5C 206.653,354.812 219.82,339.812 232.5,324.5 Z"/></g>
<g><path style="opacity:1" fill="#f8a517" d="M 489.5,333.5 C 489.5,334.167 489.5,334.833 489.5,335.5C 446.699,381.804 404.033,428.304 361.5,475C 359.527,475.495 357.527,475.662 355.5,475.5C 399.993,426.532 444.493,377.532 489,328.5C 489.494,330.134 489.66,331.801 489.5,333.5 Z"/></g>
<g><path style="opacity:1" fill="#de46a0" d="M 291.5,330.5 C 292.239,330.369 292.906,330.536 293.5,331C 291.106,332.952 289.606,335.452 289,338.5C 278.095,349.733 267.595,361.233 257.5,373C 260.817,373.498 264.15,373.665 267.5,373.5C 267.5,373.833 267.5,374.167 267.5,374.5C 243.328,374.831 219.328,374.498 195.5,373.5C 201.5,373.5 207.5,373.5 213.5,373.5C 218.167,373.5 222.833,373.5 227.5,373.5C 232.511,373.666 237.511,373.499 242.5,373C 254.167,360 265.833,347 277.5,334C 276.207,333.51 274.873,333.343 273.5,333.5C 279.368,332.507 285.368,331.507 291.5,330.5 Z"/></g>
<g><path style="opacity:1" fill="#d241b4" d="M 248.5,330.5 C 251.583,330.916 254.583,331.583 257.5,332.5C 259.292,333.309 261.292,333.809 263.5,334C 251.663,347.336 239.663,360.503 227.5,373.5C 222.833,373.5 218.167,373.5 213.5,373.5C 225.626,359.538 237.959,345.704 250.5,332C 249.584,331.722 248.918,331.222 248.5,330.5 Z"/></g>
<g><path style="opacity:1" fill="#d842a8" d="M 257.5,332.5 C 262.833,332.833 268.167,333.167 273.5,333.5C 274.873,333.343 276.207,333.51 277.5,334C 265.833,347 254.167,360 242.5,373C 237.511,373.499 232.511,373.666 227.5,373.5C 239.663,360.503 251.663,347.336 263.5,334C 261.292,333.809 259.292,333.309 257.5,332.5 Z"/></g>
<g><path style="opacity:1" fill="#f9af26" d="M 489.5,335.5 C 489.5,337.5 489.5,339.5 489.5,341.5C 448.699,385.804 408.033,430.304 367.5,475C 370.146,475.497 372.813,475.664 375.5,475.5C 377.5,475.5 379.5,475.5 381.5,475.5C 385.5,475.5 389.5,475.5 393.5,475.5C 395.833,475.5 398.167,475.5 400.5,475.5C 404.167,475.5 407.833,475.5 411.5,475.5C 361.669,476.499 311.669,476.832 261.5,476.5C 261.5,476.167 261.5,475.833 261.5,475.5C 261.833,475.5 262.167,475.5 262.5,475.5C 264.833,475.5 267.167,475.5 269.5,475.5C 272.167,475.5 274.833,475.5 277.5,475.5C 280.5,475.5 283.5,475.5 286.5,475.5C 289.167,475.5 291.833,475.5 294.5,475.5C 297.167,475.5 299.833,475.5 302.5,475.5C 305.167,475.5 307.833,475.5 310.5,475.5C 313.5,475.5 316.5,475.5 319.5,475.5C 322.167,475.5 324.833,475.5 327.5,475.5C 329.833,475.5 332.167,475.5 334.5,475.5C 337.167,475.5 339.833,475.5 342.5,475.5C 344.833,475.5 347.167,475.5 349.5,475.5C 351.5,475.5 353.5,475.5 355.5,475.5C 357.527,475.662 359.527,475.495 361.5,475C 404.033,428.304 446.699,381.804 489.5,335.5 Z"/></g>
<g><path style="opacity:1" fill="#fab113" d="M 489.5,341.5 C 489.5,343.833 489.5,346.167 489.5,348.5C 451.55,389.048 414.05,430.048 377,471.5C 376.59,472.901 376.09,474.234 375.5,475.5C 372.813,475.664 370.146,475.497 367.5,475C 408.033,430.304 448.699,385.804 489.5,341.5 Z"/></g>
<g><path style="opacity:1" fill="#ff7462" d="M 385.5,339.5 C 380.663,353.671 371.33,363.671 357.5,369.5C 367.228,359.775 376.562,349.775 385.5,339.5 Z"/></g>
<g><path style="opacity:1" fill="#af3bed" d="M 124.5,325.5 C 125.658,333.148 127.325,340.815 129.5,348.5C 129.392,350.783 128.559,352.783 127,354.5C 104.301,379.363 81.4672,404.03 58.5,428.5C 55.1057,423.704 52.7723,418.371 51.5,412.5C 54.0562,411.457 56.2228,409.79 58,407.5C 79.6302,382.868 101.63,358.535 124,334.5C 124.498,331.518 124.665,328.518 124.5,325.5 Z"/></g>
<g><path style="opacity:1" fill="#fab711" d="M 489.5,348.5 C 489.5,351.167 489.5,353.833 489.5,356.5C 452.809,395.558 416.809,435.225 381.5,475.5C 379.5,475.5 377.5,475.5 375.5,475.5C 376.09,474.234 376.59,472.901 377,471.5C 414.05,430.048 451.55,389.048 489.5,348.5 Z"/></g>
<g><path style="opacity:1" fill="#fbc00e" d="M 489.5,356.5 C 489.666,361.179 489.499,365.845 489,370.5C 456.692,405.153 424.859,440.153 393.5,475.5C 389.5,475.5 385.5,475.5 381.5,475.5C 416.809,435.225 452.809,395.558 489.5,356.5 Z"/></g>
<g><path style="opacity:1" fill="#b43ae7" d="M 129.5,348.5 C 131.403,351.979 133.07,355.646 134.5,359.5C 132.577,362.603 130.41,365.603 128,368.5C 107,391.5 86,414.5 65,437.5C 64.3292,436.748 63.4959,436.414 62.5,436.5C 60.6418,434.117 59.3084,431.45 58.5,428.5C 81.4672,404.03 104.301,379.363 127,354.5C 128.559,352.783 129.392,350.783 129.5,348.5 Z"/></g>
<g><path style="opacity:1" fill="#b73be2" d="M 134.5,359.5 C 136.316,361.118 137.649,363.118 138.5,365.5C 137.928,367.255 137.094,368.922 136,370.5C 113.634,395.03 91.1339,419.363 68.5,443.5C 65.7997,441.766 63.7997,439.432 62.5,436.5C 63.4959,436.414 64.3292,436.748 65,437.5C 86,414.5 107,391.5 128,368.5C 130.41,365.603 132.577,362.603 134.5,359.5 Z"/></g>
<g><path style="opacity:1" fill="#ba3cdd" d="M 138.5,365.5 C 140.156,367.46 141.823,369.46 143.5,371.5C 144.218,373.137 144.384,374.803 144,376.5C 124,398.5 104,420.5 84,442.5C 81.2337,445.777 78.067,448.443 74.5,450.5C 71.7573,448.761 69.7573,446.427 68.5,443.5C 91.1339,419.363 113.634,395.03 136,370.5C 137.094,368.922 137.928,367.255 138.5,365.5 Z"/></g>
<g><path style="opacity:1" fill="#fccb14" d="M 489.5,333.5 C 489.833,333.5 490.167,333.5 490.5,333.5C 490.831,355.34 490.497,377.006 489.5,398.5C 489.5,396.167 489.5,393.833 489.5,391.5C 489.666,387.154 489.499,382.821 489,378.5C 459.294,410.704 429.794,443.037 400.5,475.5C 398.167,475.5 395.833,475.5 393.5,475.5C 424.859,440.153 456.692,405.153 489,370.5C 489.499,365.845 489.666,361.179 489.5,356.5C 489.5,353.833 489.5,351.167 489.5,348.5C 489.5,346.167 489.5,343.833 489.5,341.5C 489.5,339.5 489.5,337.5 489.5,335.5C 489.5,334.833 489.5,334.167 489.5,333.5 Z"/></g>
<g><path style="opacity:1" fill="#be3dd7" d="M 143.5,371.5 C 146.167,374.833 149.167,377.833 152.5,380.5C 129.899,406.771 106.566,432.438 82.5,457.5C 79.2157,455.883 76.5491,453.55 74.5,450.5C 78.067,448.443 81.2337,445.777 84,442.5C 104,420.5 124,398.5 144,376.5C 144.384,374.803 144.218,373.137 143.5,371.5 Z"/></g>
<g><path style="opacity:1" fill="#fa7537" d="M 385.5,381.5 C 386.525,381.897 386.692,382.563 386,383.5C 357.96,414.037 330.127,444.704 302.5,475.5C 299.833,475.5 297.167,475.5 294.5,475.5C 316.127,451.37 337.96,427.37 360,403.5C 362.201,400.879 364.035,398.046 365.5,395C 364.552,394.517 363.552,394.351 362.5,394.5C 370.613,390.944 378.28,386.61 385.5,381.5 Z"/></g>
<g><path style="opacity:1" fill="#c23ed1" d="M 152.5,380.5 C 154.657,382.412 156.991,384.079 159.5,385.5C 159.414,386.496 159.748,387.329 160.5,388C 137.833,412.667 115.167,437.333 92.5,462C 91.1807,462.195 89.8474,462.028 88.5,461.5C 86.1475,460.66 84.1475,459.326 82.5,457.5C 106.566,432.438 129.899,406.771 152.5,380.5 Z"/></g>
<g><path style="opacity:1" fill="#fdd50a" d="M 489.5,391.5 C 464.366,418.805 439.366,446.305 414.5,474C 415.793,474.49 417.127,474.657 418.5,474.5C 416.393,475.468 414.059,475.802 411.5,475.5C 407.833,475.5 404.167,475.5 400.5,475.5C 429.794,443.037 459.294,410.704 489,378.5C 489.499,382.821 489.666,387.154 489.5,391.5 Z"/></g>
<g><path style="opacity:1" fill="#c53fcb" d="M 159.5,385.5 C 163.034,387.766 166.7,389.766 170.5,391.5C 170.649,392.552 170.483,393.552 170,394.5C 148.667,417.833 127.333,441.167 106,464.5C 105.693,467.876 103.86,469.21 100.5,468.5C 95.9758,466.957 91.9758,464.623 88.5,461.5C 89.8474,462.028 91.1807,462.195 92.5,462C 115.167,437.333 137.833,412.667 160.5,388C 159.748,387.329 159.414,386.496 159.5,385.5 Z"/></g>
<g><path style="opacity:1" fill="#c941c5" d="M 170.5,391.5 C 173.749,393.028 177.082,394.361 180.5,395.5C 180.611,396.117 180.944,396.617 181.5,397C 158.3,422.363 134.967,447.53 111.5,472.5C 107.463,471.935 103.797,470.601 100.5,468.5C 103.86,469.21 105.693,467.876 106,464.5C 127.333,441.167 148.667,417.833 170,394.5C 170.483,393.552 170.649,392.552 170.5,391.5 Z"/></g>
<g><path style="opacity:1" fill="#fa6e3a" d="M 362.5,394.5 C 363.552,394.351 364.552,394.517 365.5,395C 364.035,398.046 362.201,400.879 360,403.5C 337.96,427.37 316.127,451.37 294.5,475.5C 291.833,475.5 289.167,475.5 286.5,475.5C 309.996,449.836 333.329,424.003 356.5,398C 355.207,397.51 353.873,397.343 352.5,397.5C 355.619,396.13 358.952,395.13 362.5,394.5 Z"/></g>
<g><path style="opacity:1" fill="#cc42bf" d="M 180.5,395.5 C 183.461,396.323 186.461,396.99 189.5,397.5C 189.291,398.922 188.791,400.255 188,401.5C 165.634,426.03 143.134,450.363 120.5,474.5C 117.219,474.58 114.219,473.913 111.5,472.5C 134.967,447.53 158.3,422.363 181.5,397C 180.944,396.617 180.611,396.117 180.5,395.5 Z"/></g>
<g><path style="opacity:1" fill="#fb673f" d="M 352.5,397.5 C 353.873,397.343 355.207,397.51 356.5,398C 333.329,424.003 309.996,449.836 286.5,475.5C 283.5,475.5 280.5,475.5 277.5,475.5C 300.871,450.131 323.871,424.465 346.5,398.5C 348.265,397.539 350.265,397.205 352.5,397.5 Z"/></g>
<g><path style="opacity:1" fill="#d240b4" d="M 189.5,397.5 C 190.959,397.433 192.292,397.766 193.5,398.5C 196.625,399.479 199.958,399.813 203.5,399.5C 180.463,424.535 157.796,449.869 135.5,475.5C 132.5,475.5 129.5,475.5 126.5,475.5C 124.265,475.795 122.265,475.461 120.5,474.5C 143.134,450.363 165.634,426.03 188,401.5C 188.791,400.255 189.291,398.922 189.5,397.5 Z"/></g>
<g><path style="opacity:1" fill="#d83fa7" d="M 203.5,399.5 C 208.167,399.5 212.833,399.5 217.5,399.5C 195.204,425.131 172.537,450.465 149.5,475.5C 144.833,475.5 140.167,475.5 135.5,475.5C 157.796,449.869 180.463,424.535 203.5,399.5 Z"/></g>
<g><path style="opacity:1" fill="#dc3f9f" d="M 217.5,399.5 C 219.833,399.5 222.167,399.5 224.5,399.5C 201.833,424.833 179.167,450.167 156.5,475.5C 154.167,475.5 151.833,475.5 149.5,475.5C 172.537,450.465 195.204,425.131 217.5,399.5 Z"/></g>
<g><path style="opacity:1" fill="#df3f99" d="M 224.5,399.5 C 227.167,399.5 229.833,399.5 232.5,399.5C 210.24,425.099 187.573,450.432 164.5,475.5C 161.833,475.5 159.167,475.5 156.5,475.5C 179.167,450.167 201.833,424.833 224.5,399.5 Z"/></g>
<g><path style="opacity:1" fill="#e23f92" d="M 232.5,399.5 C 234.833,399.5 237.167,399.5 239.5,399.5C 216.463,424.535 193.796,449.869 171.5,475.5C 169.167,475.5 166.833,475.5 164.5,475.5C 187.573,450.432 210.24,425.099 232.5,399.5 Z"/></g>
<g><path style="opacity:1" fill="#e5408c" d="M 239.5,399.5 C 241.833,399.5 244.167,399.5 246.5,399.5C 223.463,424.535 200.796,449.869 178.5,475.5C 176.167,475.5 173.833,475.5 171.5,475.5C 193.796,449.869 216.463,424.535 239.5,399.5 Z"/></g>
<g><path style="opacity:1" fill="#e84086" d="M 246.5,399.5 C 248.857,399.337 251.19,399.503 253.5,400C 230.464,424.701 207.797,449.701 185.5,475C 183.19,475.497 180.857,475.663 178.5,475.5C 200.796,449.869 223.463,424.535 246.5,399.5 Z"/></g>
<g><path style="opacity:1" fill="#f1628f" d="M 193.5,398.5 C 242.5,398.5 291.5,398.5 340.5,398.5C 340.158,399.338 339.492,399.672 338.5,399.5C 335.833,399.5 333.167,399.5 330.5,399.5C 327.833,399.5 325.167,399.5 322.5,399.5C 319.5,399.5 316.5,399.5 313.5,399.5C 307.833,399.5 302.167,399.5 296.5,399.5C 294.5,399.5 292.5,399.5 290.5,399.5C 287.833,399.5 285.167,399.5 282.5,399.5C 280.167,399.5 277.833,399.5 275.5,399.5C 273.167,399.5 270.833,399.5 268.5,399.5C 265.813,399.336 263.146,399.503 260.5,400C 238.203,425.299 215.536,450.299 192.5,475C 195.146,475.497 197.813,475.664 200.5,475.5C 202.5,475.5 204.5,475.5 206.5,475.5C 208.833,475.5 211.167,475.5 213.5,475.5C 215.833,475.5 218.167,475.5 220.5,475.5C 223.167,475.5 225.833,475.5 228.5,475.5C 234.167,475.5 239.833,475.5 245.5,475.5C 248.5,475.5 251.5,475.5 254.5,475.5C 256.833,475.5 259.167,475.5 261.5,475.5C 261.5,475.833 261.5,476.167 261.5,476.5C 216.33,476.832 171.33,476.499 126.5,475.5C 129.5,475.5 132.5,475.5 135.5,475.5C 140.167,475.5 144.833,475.5 149.5,475.5C 151.833,475.5 154.167,475.5 156.5,475.5C 159.167,475.5 161.833,475.5 164.5,475.5C 166.833,475.5 169.167,475.5 171.5,475.5C 173.833,475.5 176.167,475.5 178.5,475.5C 180.857,475.663 183.19,475.497 185.5,475C 207.797,449.701 230.464,424.701 253.5,400C 251.19,399.503 248.857,399.337 246.5,399.5C 244.167,399.5 241.833,399.5 239.5,399.5C 237.167,399.5 234.833,399.5 232.5,399.5C 229.833,399.5 227.167,399.5 224.5,399.5C 222.167,399.5 219.833,399.5 217.5,399.5C 212.833,399.5 208.167,399.5 203.5,399.5C 199.958,399.813 196.625,399.479 193.5,398.5 Z"/></g>
<g><path style="opacity:1" fill="#ef4079" d="M 268.5,399.5 C 245.44,424.555 222.774,449.889 200.5,475.5C 197.813,475.664 195.146,475.497 192.5,475C 215.536,450.299 238.203,425.299 260.5,400C 263.146,399.503 265.813,399.336 268.5,399.5 Z"/></g>
<g><path style="opacity:1" fill="#f24073" d="M 268.5,399.5 C 270.833,399.5 273.167,399.5 275.5,399.5C 252.5,424.833 229.5,450.167 206.5,475.5C 204.5,475.5 202.5,475.5 200.5,475.5C 222.774,449.889 245.44,424.555 268.5,399.5 Z"/></g>
<g><path style="opacity:1" fill="#f5406d" d="M 275.5,399.5 C 277.833,399.5 280.167,399.5 282.5,399.5C 259.5,424.833 236.5,450.167 213.5,475.5C 211.167,475.5 208.833,475.5 206.5,475.5C 229.5,450.167 252.5,424.833 275.5,399.5 Z"/></g>
<g><path style="opacity:1" fill="#f84067" d="M 282.5,399.5 C 285.167,399.5 287.833,399.5 290.5,399.5C 267.478,425.186 244.145,450.519 220.5,475.5C 218.167,475.5 215.833,475.5 213.5,475.5C 236.5,450.167 259.5,424.833 282.5,399.5 Z"/></g>
<g><path style="opacity:1" fill="#fb4060" d="M 290.5,399.5 C 292.5,399.5 294.5,399.5 296.5,399.5C 274.226,425.111 251.56,450.445 228.5,475.5C 225.833,475.5 223.167,475.5 220.5,475.5C 244.145,450.519 267.478,425.186 290.5,399.5 Z"/></g>
<g><path style="opacity:1" fill="#fe4556" d="M 296.5,399.5 C 302.167,399.5 307.833,399.5 313.5,399.5C 290.463,424.535 267.796,449.869 245.5,475.5C 239.833,475.5 234.167,475.5 228.5,475.5C 251.56,450.445 274.226,425.111 296.5,399.5 Z"/></g>
<g><path style="opacity:1" fill="#fd4e50" d="M 313.5,399.5 C 316.5,399.5 319.5,399.5 322.5,399.5C 299.463,424.535 276.796,449.869 254.5,475.5C 251.5,475.5 248.5,475.5 245.5,475.5C 267.796,449.869 290.463,424.535 313.5,399.5 Z"/></g>
<g><path style="opacity:1" fill="#fd544b" d="M 322.5,399.5 C 325.167,399.5 327.833,399.5 330.5,399.5C 307.44,424.555 284.774,449.889 262.5,475.5C 262.167,475.5 261.833,475.5 261.5,475.5C 259.167,475.5 256.833,475.5 254.5,475.5C 276.796,449.869 299.463,424.535 322.5,399.5 Z"/></g>
<g><path style="opacity:1" fill="#fc5a47" d="M 330.5,399.5 C 333.167,399.5 335.833,399.5 338.5,399.5C 315.5,424.833 292.5,450.167 269.5,475.5C 267.167,475.5 264.833,475.5 262.5,475.5C 284.774,449.889 307.44,424.555 330.5,399.5 Z"/></g>
<g><path style="opacity:1" fill="#fc6043" d="M 340.5,398.5 C 342.5,398.5 344.5,398.5 346.5,398.5C 323.871,424.465 300.871,450.131 277.5,475.5C 274.833,475.5 272.167,475.5 269.5,475.5C 292.5,450.167 315.5,424.833 338.5,399.5C 339.492,399.672 340.158,399.338 340.5,398.5 Z"/></g>
<g><path style="opacity:1" fill="#fee415" d="M 489.5,391.5 C 489.5,393.833 489.5,396.167 489.5,398.5C 484.675,432.33 466.675,456.163 435.5,470C 430.007,472.221 424.34,473.721 418.5,474.5C 417.127,474.657 415.793,474.49 414.5,474C 439.366,446.305 464.366,418.805 489.5,391.5 Z"/></g>
</svg>
