<?xml version="1.0" encoding="UTF-8"?>
<!DOCTYPE svg PUBLIC "-//W3C//DTD SVG 1.1//EN" "http://www.w3.org/Graphics/SVG/1.1/DTD/svg11.dtd">
<svg xmlns="http://www.w3.org/2000/svg" version="1.1" width="525px" height="513px" style="shape-rendering:geometricPrecision; text-rendering:geometricPrecision; image-rendering:optimizeQuality; fill-rule:evenodd; clip-rule:evenodd" xmlns:xlink="http://www.w3.org/1999/xlink">
<g><path style="opacity:1" fill="#39adee" d="M 470.5,83.5 C 469.711,83.2172 469.044,82.7172 468.5,82C 328.5,81.5 188.5,81.3333 48.5,81.5C 62.9891,55.7321 84.9891,40.5654 114.5,36C 210.833,35.3333 307.167,35.3333 403.5,36C 433.819,40.8535 456.152,56.6869 470.5,83.5 Z"/></g>
<g><path style="opacity:1" fill="#35aaea" d="M 48.5,81.5 C 188.5,81.3333 328.5,81.5 468.5,82C 469.044,82.7172 469.711,83.2172 470.5,83.5C 475.535,92.4392 478.701,102.106 480,112.5C 480.832,208.668 480.666,304.668 479.5,400.5C 479.5,384.833 479.5,369.167 479.5,353.5C 479.5,342.833 479.5,332.167 479.5,321.5C 479.5,281.5 479.5,241.5 479.5,201.5C 442.5,201.5 405.5,201.5 368.5,201.5C 370.138,190.217 370.638,178.884 370,167.5C 369.214,164.417 367.381,162.251 364.5,161C 355.217,160.235 346.217,161.568 337.5,165C 317.025,172.546 296.691,180.379 276.5,188.5C 197.002,187.501 117.335,187.167 37.5,187.5C 37.3334,161.831 37.5,136.165 38,110.5C 39.448,99.9809 42.948,90.3142 48.5,81.5 Z"/></g>
<g><path style="opacity:1" fill="#33a8e7" d="M 37.5,187.5 C 117.335,187.167 197.002,187.501 276.5,188.5C 266.125,193.684 255.458,198.351 244.5,202.5C 175.669,201.501 106.669,201.167 37.5,201.5C 37.5,196.833 37.5,192.167 37.5,187.5 Z"/></g>
<g><path style="opacity:1" fill="#35a7e4" d="M 37.5,201.5 C 106.669,201.167 175.669,201.501 244.5,202.5C 208.279,219.773 171.612,236.273 134.5,252C 128.592,254.535 123.092,257.702 118,261.5C 116.699,263.365 116.365,265.365 117,267.5C 119.408,269.956 122.241,271.789 125.5,273C 140.208,278.681 155.208,283.348 170.5,287C 178.881,287.991 186.881,286.657 194.5,283C 228.5,260 262.5,237 296.5,214C 298.407,212.878 300.407,212.045 302.5,211.5C 305.482,211.037 308.482,210.704 311.5,210.5C 312.88,210.962 313.547,211.962 313.5,213.5C 312.53,216.774 311.03,219.774 309,222.5C 283.333,247.167 257.667,271.833 232,296.5C 229.212,300.67 228.879,305.003 231,309.5C 235.775,314.447 240.942,318.78 246.5,322.5C 176.875,321.507 107.208,321.173 37.5,321.5C 37.5,332.167 37.5,342.833 37.5,353.5C 37.5,365.5 37.5,377.5 37.5,389.5C 36.5331,327 36.5331,264.333 37.5,201.5 Z"/></g>
<g><path style="opacity:1" fill="#2fa6e3" d="M 368.5,201.5 C 405.5,201.5 442.5,201.5 479.5,201.5C 479.5,241.5 479.5,281.5 479.5,321.5C 436.094,321.828 392.761,321.494 349.5,320.5C 355.943,280.718 362.276,241.052 368.5,201.5 Z"/></g>
<g><path style="opacity:1" fill="#86c7ef" d="M 311.5,210.5 C 308.482,210.704 305.482,211.037 302.5,211.5C 305.373,209.518 308.373,209.185 311.5,210.5 Z"/></g>
<g><path style="opacity:1" fill="#2ca3df" d="M 246.5,322.5 C 261.555,332.354 276.221,342.687 290.5,353.5C 206.167,353.5 121.833,353.5 37.5,353.5C 37.5,342.833 37.5,332.167 37.5,321.5C 107.208,321.173 176.875,321.507 246.5,322.5 Z"/></g>
<g><path style="opacity:1" fill="#2ca3df" d="M 349.5,320.5 C 392.761,321.494 436.094,321.828 479.5,321.5C 479.5,332.167 479.5,342.833 479.5,353.5C 434.095,353.172 388.761,353.505 343.5,354.5C 345.5,343.167 347.5,331.833 349.5,320.5 Z"/></g>
<g><path style="opacity:1" fill="#29a1dc" d="M 37.5,353.5 C 121.833,353.5 206.167,353.5 290.5,353.5C 296.5,357.5 302.5,361.5 308.5,365.5C 308.821,367.048 309.821,367.715 311.5,367.5C 327.201,375.252 337.868,370.918 343.5,354.5C 388.761,353.505 434.095,353.172 479.5,353.5C 479.5,369.167 479.5,384.833 479.5,400.5C 478.742,412.555 475.076,423.555 468.5,433.5C 329.001,432.334 189.334,432.167 49.5,433C 50.2524,433.671 50.5858,434.504 50.5,435.5C 41.3342,421.653 37.0008,406.32 37.5,389.5C 37.5,377.5 37.5,365.5 37.5,353.5 Z"/></g>
<g><path style="opacity:1" fill="#9acced" d="M 308.5,365.5 C 309.71,365.932 310.71,366.599 311.5,367.5C 309.821,367.715 308.821,367.048 308.5,365.5 Z"/></g>
<g><path style="opacity:1" fill="#289fd9" d="M 468.5,433.5 C 454.159,458.697 432.492,473.53 403.5,478C 307.167,478.667 210.833,478.667 114.5,478C 112.08,477.71 109.746,477.21 107.5,476.5C 105.485,475.076 103.152,474.41 100.5,474.5C 78.5329,468.189 61.8662,455.189 50.5,435.5C 50.5858,434.504 50.2524,433.671 49.5,433C 189.334,432.167 329.001,432.334 468.5,433.5 Z"/></g>
<g><path style="opacity:1" fill="#82c4e7" d="M 100.5,474.5 C 103.152,474.41 105.485,475.076 107.5,476.5C 104.848,476.59 102.515,475.924 100.5,474.5 Z"/></g>
</svg>
