<?xml version="1.0" encoding="UTF-8"?>
<!DOCTYPE svg PUBLIC "-//W3C//DTD SVG 1.1//EN" "http://www.w3.org/Graphics/SVG/1.1/DTD/svg11.dtd">
<svg xmlns="http://www.w3.org/2000/svg" version="1.1" width="525px" height="513px" style="shape-rendering:geometricPrecision; text-rendering:geometricPrecision; image-rendering:optimizeQuality; fill-rule:evenodd; clip-rule:evenodd" xmlns:xlink="http://www.w3.org/1999/xlink">
<g><path style="opacity:1" fill="#40b3ff" d="M 432.5,43.5 C 318.167,43.5 203.833,43.5 89.5,43.5C 100.017,37.8673 111.35,34.7006 123.5,34C 215.167,33.3333 306.833,33.3333 398.5,34C 410.638,34.6981 421.971,37.8647 432.5,43.5 Z"/></g>
<g><path style="opacity:1" fill="#1aaafd" d="M 89.5,43.5 C 203.833,43.5 318.167,43.5 432.5,43.5C 444.525,48.8464 454.525,56.8464 462.5,67.5C 327.793,67.1701 193.126,67.5034 58.5,68.5C 66.7539,57.5786 77.0872,49.2453 89.5,43.5 Z"/></g>
<g><path style="opacity:1" fill="#17a5fc" d="M 462.5,67.5 C 471.361,77.8922 477.027,89.8922 479.5,103.5C 431.5,103.5 383.5,103.5 335.5,103.5C 335.5,100.833 335.5,98.1667 335.5,95.5C 316.167,95.5 296.833,95.5 277.5,95.5C 277.5,96.5 277.5,97.5 277.5,98.5C 260.167,98.5 242.833,98.5 225.5,98.5C 225.5,99.5 225.5,100.5 225.5,101.5C 163.952,101.964 102.618,103.297 41.5,105.5C 44.2283,91.7166 49.8949,79.3832 58.5,68.5C 193.126,67.5034 327.793,67.1701 462.5,67.5 Z"/></g>
<g><path style="opacity:1" fill="#1fa0fa" d="M 479.5,103.5 C 480.977,107.233 481.811,111.233 482,115.5C 482.832,209.334 482.666,303.001 481.5,396.5C 481.5,387.5 481.5,378.5 481.5,369.5C 481.5,357.5 481.5,345.5 481.5,333.5C 481.5,319.167 481.5,304.833 481.5,290.5C 481.5,278.5 481.5,266.5 481.5,254.5C 481.5,242.5 481.5,230.5 481.5,218.5C 481.5,206.5 481.5,194.5 481.5,182.5C 481.5,171.167 481.5,159.833 481.5,148.5C 481.5,144.167 481.5,139.833 481.5,135.5C 432.833,135.5 384.167,135.5 335.5,135.5C 335.5,132.833 335.5,130.167 335.5,127.5C 316.167,127.5 296.833,127.5 277.5,127.5C 277.5,128.5 277.5,129.5 277.5,130.5C 260.167,130.5 242.833,130.5 225.5,130.5C 225.5,131.5 225.5,132.5 225.5,133.5C 163.84,134.631 102.173,135.298 40.5,135.5C 40.5,139.833 40.5,144.167 40.5,148.5C 40.5,159.833 40.5,171.167 40.5,182.5C 40.5,194.5 40.5,206.5 40.5,218.5C 40.5,230.5 40.5,242.5 40.5,254.5C 40.5,266.5 40.5,278.5 40.5,290.5C 40.5,304.833 40.5,319.167 40.5,333.5C 40.5,340.833 40.5,348.167 40.5,355.5C 40.5,360.167 40.5,364.833 40.5,369.5C 40.5,379.167 40.5,388.833 40.5,398.5C 39.3342,303.334 39.1675,208.001 40,112.5C 40.2904,110.08 40.7904,107.746 41.5,105.5C 102.618,103.297 163.952,101.964 225.5,101.5C 225.5,100.5 225.5,99.5 225.5,98.5C 242.833,98.5 260.167,98.5 277.5,98.5C 277.5,97.5 277.5,96.5 277.5,95.5C 296.833,95.5 316.167,95.5 335.5,95.5C 335.5,98.1667 335.5,100.833 335.5,103.5C 383.5,103.5 431.5,103.5 479.5,103.5 Z M 121.5,144.5 C 133.678,144.172 145.678,144.505 157.5,145.5C 159.929,146.551 162.262,147.884 164.5,149.5C 164.66,151.153 165.326,152.486 166.5,153.5C 168.298,159.177 169.964,164.843 171.5,170.5C 173.339,181.002 176.339,191.002 180.5,200.5C 180.171,203.228 180.837,205.562 182.5,207.5C 183.569,212.479 185.235,217.146 187.5,221.5C 188.267,225.149 189.6,228.482 191.5,231.5C 193.728,238.286 196.728,244.619 200.5,250.5C 200.5,251.167 200.833,251.5 201.5,251.5C 202.737,255.644 204.737,259.311 207.5,262.5C 208.833,265.167 210.833,267.167 213.5,268.5C 215.966,269.634 218.633,269.801 221.5,269C 222.252,268.329 222.586,267.496 222.5,266.5C 223.222,266.082 223.722,265.416 224,264.5C 224.667,237.833 224.667,211.167 224,184.5C 222.92,179.446 221.087,174.446 218.5,169.5C 218.25,167.326 217.25,165.659 215.5,164.5C 214.871,161.603 213.871,158.936 212.5,156.5C 212.5,154.833 212.5,153.167 212.5,151.5C 214.137,149.525 215.804,147.525 217.5,145.5C 219.948,144.527 222.615,144.194 225.5,144.5C 242.833,144.5 260.167,144.5 277.5,144.5C 278.659,146.25 280.326,147.25 282.5,147.5C 283.609,150.733 284.442,154.066 285,157.5C 285.333,187.5 285.667,217.5 286,247.5C 286.2,249.32 287.034,250.653 288.5,251.5C 290.056,253.988 292.389,254.988 295.5,254.5C 298.826,254.927 301.492,253.927 303.5,251.5C 304.906,251.027 305.573,250.027 305.5,248.5C 307.027,248.573 308.027,247.906 308.5,246.5C 310.664,244.178 312.331,241.511 313.5,238.5C 316.916,234.677 319.582,230.343 321.5,225.5C 322.674,224.486 323.34,223.153 323.5,221.5C 326.241,218.314 328.241,214.647 329.5,210.5C 331.771,208.388 333.104,205.721 333.5,202.5C 334.167,202.5 334.5,202.167 334.5,201.5C 336.403,198.021 338.07,194.354 339.5,190.5C 341.565,187.075 343.231,183.408 344.5,179.5C 349.06,171.253 352.727,162.586 355.5,153.5C 357.175,150.39 359.675,148.057 363,146.5C 364.785,147.354 365.951,146.687 366.5,144.5C 378.167,144.5 389.833,144.5 401.5,144.5C 403.193,146.602 405.359,148.268 408,149.5C 409.21,156.899 408.376,164.232 405.5,171.5C 403.57,177.616 401.237,183.616 398.5,189.5C 396.935,191.509 395.935,193.843 395.5,196.5C 392.987,200.193 390.987,204.193 389.5,208.5C 387.707,210.426 386.707,212.759 386.5,215.5C 385.833,215.5 385.5,215.833 385.5,216.5C 384.326,217.514 383.66,218.847 383.5,220.5C 381.992,222.181 380.992,224.181 380.5,226.5C 378.277,229.144 376.611,232.144 375.5,235.5C 370.022,244.382 365.189,253.715 361,263.5C 359.26,272.976 361.76,280.976 368.5,287.5C 369.415,291.283 371.415,294.283 374.5,296.5C 374.75,298.674 375.75,300.341 377.5,301.5C 377.738,303.404 378.738,304.738 380.5,305.5C 384.458,311.502 387.958,317.836 391,324.5C 391.708,325.381 392.542,326.047 393.5,326.5C 395.307,330.584 397.307,334.584 399.5,338.5C 401.133,342.767 403.133,346.767 405.5,350.5C 405.935,353.157 406.935,355.491 408.5,357.5C 408.338,359.527 408.505,361.527 409,363.5C 409.383,364.056 409.883,364.389 410.5,364.5C 410.5,364.833 410.5,365.167 410.5,365.5C 408.895,367.48 407.728,369.813 407,372.5C 404.098,373.665 401.598,375.331 399.5,377.5C 388.167,377.5 376.833,377.5 365.5,377.5C 365.047,376.542 364.381,375.708 363.5,375C 359.925,374.546 356.925,373.046 354.5,370.5C 354.262,368.596 353.262,367.262 351.5,366.5C 351.34,364.847 350.674,363.514 349.5,362.5C 348.92,360.251 347.587,358.585 345.5,357.5C 345.771,355.62 345.104,354.287 343.5,353.5C 342.589,349.75 340.589,346.75 337.5,344.5C 337.34,342.847 336.674,341.514 335.5,340.5C 333.745,337.32 331.745,334.32 329.5,331.5C 329.262,329.596 328.262,328.262 326.5,327.5C 325.581,324.911 323.914,322.911 321.5,321.5C 320.92,319.251 319.587,317.585 317.5,316.5C 316.92,314.251 315.587,312.585 313.5,311.5C 312.522,308.522 310.522,306.522 307.5,305.5C 306.674,303.736 305.341,302.402 303.5,301.5C 299.033,298.611 294.033,297.777 288.5,299C 287.748,299.671 287.414,300.504 287.5,301.5C 286.778,301.918 286.278,302.584 286,303.5C 285.919,325.199 285.253,346.866 284,368.5C 279.503,373.851 273.669,376.018 266.5,375C 265.748,375.671 265.414,376.504 265.5,377.5C 263.833,377.5 262.167,377.5 260.5,377.5C 260.423,376.25 259.756,375.417 258.5,375C 255.183,374.502 251.85,374.335 248.5,374.5C 241.82,372.394 235.154,369.894 228.5,367C 217.403,360.797 207.069,353.63 197.5,345.5C 196.522,342.522 194.522,340.522 191.5,339.5C 190.581,336.911 188.914,334.911 186.5,333.5C 184.882,331.215 182.882,329.215 180.5,327.5C 180.262,325.596 179.262,324.262 177.5,323.5C 177.34,321.847 176.674,320.514 175.5,319.5C 174.92,317.251 173.587,315.585 171.5,314.5C 169.86,311.218 167.86,308.218 165.5,305.5C 164.241,301.975 162.241,298.975 159.5,296.5C 158.696,293.558 157.362,290.891 155.5,288.5C 155.573,286.973 154.906,285.973 153.5,285.5C 153.206,282.246 151.873,279.579 149.5,277.5C 149.771,275.62 149.104,274.287 147.5,273.5C 145.564,268.256 143.231,263.256 140.5,258.5C 139.537,255.256 138.204,252.256 136.5,249.5C 135.594,245.099 133.928,241.099 131.5,237.5C 130.765,233.195 129.432,229.195 127.5,225.5C 126.367,222.443 125.367,219.443 124.5,216.5C 124.279,213.933 123.612,211.599 122.5,209.5C 121.46,204.663 120.127,199.996 118.5,195.5C 116.605,186.782 114.938,178.116 113.5,169.5C 113.665,165.818 113.499,162.152 113,158.5C 112.617,157.944 112.117,157.611 111.5,157.5C 111.5,156.5 111.5,155.5 111.5,154.5C 113.117,153.411 113.95,151.744 114,149.5C 116.826,148.093 119.326,146.426 121.5,144.5 Z"/></g>
<g><path style="opacity:1" fill="#189bf8" d="M 481.5,148.5 C 457.833,148.5 434.167,148.5 410.5,148.5C 410.5,150.167 410.5,151.833 410.5,153.5C 409.905,148.238 406.905,145.238 401.5,144.5C 389.833,144.5 378.167,144.5 366.5,144.5C 360.682,144.994 357.015,147.994 355.5,153.5C 353.626,155.082 352.293,157.082 351.5,159.5C 351.688,155.936 352.688,152.603 354.5,149.5C 348.202,148.504 341.868,148.17 335.5,148.5C 335.5,145.833 335.5,143.167 335.5,140.5C 316.167,140.5 296.833,140.5 277.5,140.5C 277.5,141.5 277.5,142.5 277.5,143.5C 259.992,143.17 242.659,143.503 225.5,144.5C 222.615,144.194 219.948,144.527 217.5,145.5C 215.251,146.08 213.585,147.413 212.5,149.5C 211.548,150.452 210.548,151.452 209.5,152.5C 210.661,154.885 211.661,157.219 212.5,159.5C 212.953,161.565 213.953,163.232 215.5,164.5C 217.25,165.659 218.25,167.326 218.5,169.5C 219.917,174.91 221.417,180.243 223,185.5C 223.83,211.67 223.663,237.67 222.5,263.5C 222.5,249.833 222.5,236.167 222.5,222.5C 222.667,210.495 222.5,198.495 222,186.5C 220.681,184.75 220.181,182.75 220.5,180.5C 205.833,180.5 191.167,180.5 176.5,180.5C 176.5,181.833 176.5,183.167 176.5,184.5C 175.295,180.851 174.295,177.017 173.5,173C 173.316,171.624 172.649,170.791 171.5,170.5C 171.219,166.812 170.719,163.145 170,159.5C 169.647,156.848 168.48,154.848 166.5,153.5C 166.771,151.62 166.104,150.287 164.5,149.5C 163.555,146.013 161.222,144.68 157.5,145.5C 145.678,144.505 133.678,144.172 121.5,144.5C 115.562,144.777 112.229,147.777 111.5,153.5C 111.5,151.833 111.5,150.167 111.5,148.5C 87.8333,148.5 64.1667,148.5 40.5,148.5C 40.5,144.167 40.5,139.833 40.5,135.5C 102.173,135.298 163.84,134.631 225.5,133.5C 225.5,132.5 225.5,131.5 225.5,130.5C 242.833,130.5 260.167,130.5 277.5,130.5C 277.5,129.5 277.5,128.5 277.5,127.5C 296.833,127.5 316.167,127.5 335.5,127.5C 335.5,130.167 335.5,132.833 335.5,135.5C 384.167,135.5 432.833,135.5 481.5,135.5C 481.5,139.833 481.5,144.167 481.5,148.5 Z"/></g>
<g><path style="opacity:1" fill="#1598f7" d="M 351.5,159.5 C 348.399,165.799 346.066,172.465 344.5,179.5C 343.025,181.007 341.691,182.673 340.5,184.5C 339.448,182.744 337.781,182.077 335.5,182.5C 335.5,179.833 335.5,177.167 335.5,174.5C 319.5,174.5 303.5,174.5 287.5,174.5C 287.5,186.5 287.5,198.5 287.5,210.5C 287.167,210.5 286.833,210.5 286.5,210.5C 286.667,192.497 286.5,174.497 286,156.5C 285.967,152.928 284.8,149.928 282.5,147.5C 281.514,145.592 279.848,144.592 277.5,144.5C 260.167,144.5 242.833,144.5 225.5,144.5C 242.659,143.503 259.992,143.17 277.5,143.5C 277.5,142.5 277.5,141.5 277.5,140.5C 296.833,140.5 316.167,140.5 335.5,140.5C 335.5,143.167 335.5,145.833 335.5,148.5C 341.868,148.17 348.202,148.504 354.5,149.5C 352.688,152.603 351.688,155.936 351.5,159.5 Z"/></g>
<g><path style="opacity:1" fill="#bbd4fb" d="M 277.5,144.5 C 279.848,144.592 281.514,145.592 282.5,147.5C 280.326,147.25 278.659,146.25 277.5,144.5 Z"/></g>
<g><path style="opacity:1" fill="#cbdefc" d="M 366.5,144.5 C 365.951,146.687 364.785,147.354 363,146.5C 359.675,148.057 357.175,150.39 355.5,153.5C 357.015,147.994 360.682,144.994 366.5,144.5 Z"/></g>
<g><path style="opacity:0.267" fill="#dce8fd" d="M 217.5,145.5 C 215.804,147.525 214.137,149.525 212.5,151.5C 212.5,150.833 212.5,150.167 212.5,149.5C 213.585,147.413 215.251,146.08 217.5,145.5 Z"/></g>
<g><path style="opacity:1" fill="#cfe0fc" d="M 121.5,144.5 C 119.326,146.426 116.826,148.093 114,149.5C 113.95,151.744 113.117,153.411 111.5,154.5C 111.5,154.167 111.5,153.833 111.5,153.5C 112.229,147.777 115.562,144.777 121.5,144.5 Z"/></g>
<g><path style="opacity:1" fill="#c6dafc" d="M 157.5,145.5 C 161.222,144.68 163.555,146.013 164.5,149.5C 162.262,147.884 159.929,146.551 157.5,145.5 Z"/></g>
<g><path style="opacity:1" fill="#1398f7" d="M 40.5,148.5 C 64.1667,148.5 87.8333,148.5 111.5,148.5C 111.5,150.167 111.5,151.833 111.5,153.5C 111.5,153.833 111.5,154.167 111.5,154.5C 111.5,155.5 111.5,156.5 111.5,157.5C 112.04,161.642 112.706,165.642 113.5,169.5C 113.613,174.518 113.947,179.518 114.5,184.5C 90.0616,182.525 65.3949,181.858 40.5,182.5C 40.5,171.167 40.5,159.833 40.5,148.5 Z"/></g>
<g><path style="opacity:1" fill="#1398f7" d="M 481.5,148.5 C 481.5,159.833 481.5,171.167 481.5,182.5C 455.5,182.5 429.5,182.5 403.5,182.5C 404.919,178.985 405.586,175.319 405.5,171.5C 406.966,170.653 407.8,169.32 408,167.5C 409.067,162.864 409.9,158.198 410.5,153.5C 410.5,151.833 410.5,150.167 410.5,148.5C 434.167,148.5 457.833,148.5 481.5,148.5 Z"/></g>
<g><path style="opacity:1" fill="#d6e4fc" d="M 164.5,149.5 C 166.104,150.287 166.771,151.62 166.5,153.5C 165.326,152.486 164.66,151.153 164.5,149.5 Z"/></g>
<g><path style="opacity:1" fill="#82b6fa" d="M 212.5,149.5 C 212.5,150.167 212.5,150.833 212.5,151.5C 212.5,153.167 212.5,154.833 212.5,156.5C 212.5,157.5 212.5,158.5 212.5,159.5C 211.661,157.219 210.661,154.885 209.5,152.5C 210.548,151.452 211.548,150.452 212.5,149.5 Z"/></g>
<g><path style="opacity:1" fill="#bcd4fb" d="M 355.5,153.5 C 352.727,162.586 349.06,171.253 344.5,179.5C 346.066,172.465 348.399,165.799 351.5,159.5C 352.293,157.082 353.626,155.082 355.5,153.5 Z"/></g>
<g><path style="opacity:1" fill="#cedffc" d="M 401.5,144.5 C 406.905,145.238 409.905,148.238 410.5,153.5C 409.9,158.198 409.067,162.864 408,167.5C 407.8,169.32 406.966,170.653 405.5,171.5C 408.376,164.232 409.21,156.899 408,149.5C 405.359,148.268 403.193,146.602 401.5,144.5 Z"/></g>
<g><path style="opacity:1" fill="#d0e0fc" d="M 111.5,157.5 C 112.117,157.611 112.617,157.944 113,158.5C 113.499,162.152 113.665,165.818 113.5,169.5C 112.706,165.642 112.04,161.642 111.5,157.5 Z"/></g>
<g><path style="opacity:1" fill="#dbe7fd" d="M 212.5,156.5 C 213.871,158.936 214.871,161.603 215.5,164.5C 213.953,163.232 212.953,161.565 212.5,159.5C 212.5,158.5 212.5,157.5 212.5,156.5 Z"/></g>
<g><path style="opacity:1" fill="#bed5fb" d="M 166.5,153.5 C 168.48,154.848 169.647,156.848 170,159.5C 170.719,163.145 171.219,166.812 171.5,170.5C 169.964,164.843 168.298,159.177 166.5,153.5 Z"/></g>
<g><path style="opacity:1" fill="#1492f6" d="M 340.5,184.5 C 340.167,186.5 339.833,188.5 339.5,190.5C 336.508,193.44 334.841,197.107 334.5,201.5C 334.5,202.167 334.167,202.5 333.5,202.5C 331.604,204.837 330.27,207.504 329.5,210.5C 328.5,211.167 327.5,211.833 326.5,212.5C 313.876,210.519 300.876,209.852 287.5,210.5C 287.5,198.5 287.5,186.5 287.5,174.5C 303.5,174.5 319.5,174.5 335.5,174.5C 335.5,177.167 335.5,179.833 335.5,182.5C 337.781,182.077 339.448,182.744 340.5,184.5 Z"/></g>
<g><path style="opacity:1" fill="#1392f5" d="M 222.5,222.5 C 221.539,220.735 221.205,218.735 221.5,216.5C 209.784,215.856 198.451,216.522 187.5,218.5C 186.275,214.528 184.608,210.862 182.5,207.5C 182.279,204.933 181.612,202.599 180.5,200.5C 179.796,194.969 178.462,189.636 176.5,184.5C 176.5,183.167 176.5,181.833 176.5,180.5C 191.167,180.5 205.833,180.5 220.5,180.5C 220.181,182.75 220.681,184.75 222,186.5C 222.5,198.495 222.667,210.495 222.5,222.5 Z"/></g>
<g><path style="opacity:1" fill="#1392f5" d="M 40.5,182.5 C 65.3949,181.858 90.0616,182.525 114.5,184.5C 115.309,188.463 116.642,192.13 118.5,195.5C 118.777,199.556 119.444,203.556 120.5,207.5C 120.747,208.713 121.414,209.38 122.5,209.5C 122.171,212.228 122.837,214.562 124.5,216.5C 125.367,219.443 126.367,222.443 127.5,225.5C 127.993,227.806 128.326,230.139 128.5,232.5C 126.204,228.19 124.537,223.524 123.5,218.5C 95.8333,218.5 68.1667,218.5 40.5,218.5C 40.5,206.5 40.5,194.5 40.5,182.5 Z"/></g>
<g><path style="opacity:1" fill="#1192f5" d="M 403.5,182.5 C 429.5,182.5 455.5,182.5 481.5,182.5C 481.5,194.5 481.5,206.5 481.5,218.5C 449.456,218.181 417.456,218.515 385.5,219.5C 385.5,218.5 385.5,217.5 385.5,216.5C 385.5,215.833 385.833,215.5 386.5,215.5C 388.293,213.574 389.293,211.241 389.5,208.5C 393.769,205.854 395.769,201.854 395.5,196.5C 397.448,194.68 398.448,192.346 398.5,189.5C 399.374,187.31 401.041,186.31 403.5,186.5C 403.5,185.167 403.5,183.833 403.5,182.5 Z"/></g>
<g><path style="opacity:1" fill="#92bcf9" d="M 405.5,171.5 C 405.586,175.319 404.919,178.985 403.5,182.5C 403.5,183.833 403.5,185.167 403.5,186.5C 401.041,186.31 399.374,187.31 398.5,189.5C 401.237,183.616 403.57,177.616 405.5,171.5 Z"/></g>
<g><path style="opacity:1" fill="#c7dafb" d="M 344.5,179.5 C 343.231,183.408 341.565,187.075 339.5,190.5C 339.833,188.5 340.167,186.5 340.5,184.5C 341.691,182.673 343.025,181.007 344.5,179.5 Z"/></g>
<g><path style="opacity:1" fill="#dae5fc" d="M 218.5,169.5 C 221.087,174.446 222.92,179.446 224,184.5C 224.667,211.167 224.667,237.833 224,264.5C 223.722,265.416 223.222,266.082 222.5,266.5C 222.5,265.5 222.5,264.5 222.5,263.5C 223.663,237.67 223.83,211.67 223,185.5C 221.417,180.243 219.917,174.91 218.5,169.5 Z"/></g>
<g><path style="opacity:1" fill="#a7c6fa" d="M 171.5,170.5 C 172.649,170.791 173.316,171.624 173.5,173C 174.295,177.017 175.295,180.851 176.5,184.5C 178.462,189.636 179.796,194.969 180.5,200.5C 176.339,191.002 173.339,181.002 171.5,170.5 Z"/></g>
<g><path style="opacity:1" fill="#a1c3fa" d="M 113.5,169.5 C 114.938,178.116 116.605,186.782 118.5,195.5C 116.642,192.13 115.309,188.463 114.5,184.5C 113.947,179.518 113.613,174.518 113.5,169.5 Z"/></g>
<g><path style="opacity:1" fill="#c1d5fa" d="M 398.5,189.5 C 398.448,192.346 397.448,194.68 395.5,196.5C 395.935,193.843 396.935,191.509 398.5,189.5 Z"/></g>
<g><path style="opacity:1" fill="#cdddfb" d="M 339.5,190.5 C 338.07,194.354 336.403,198.021 334.5,201.5C 334.841,197.107 336.508,193.44 339.5,190.5 Z"/></g>
<g><path style="opacity:1" fill="#b3ccf9" d="M 282.5,147.5 C 284.8,149.928 285.967,152.928 286,156.5C 286.5,174.497 286.667,192.497 286.5,210.5C 286.333,222.505 286.5,234.505 287,246.5C 287.608,248.154 288.108,249.821 288.5,251.5C 287.034,250.653 286.2,249.32 286,247.5C 285.667,217.5 285.333,187.5 285,157.5C 284.442,154.066 283.609,150.733 282.5,147.5 Z"/></g>
<g><path style="opacity:1" fill="#d5e2fc" d="M 180.5,200.5 C 181.612,202.599 182.279,204.933 182.5,207.5C 180.837,205.562 180.171,203.228 180.5,200.5 Z"/></g>
<g><path style="opacity:1" fill="#91b9f9" d="M 395.5,196.5 C 395.769,201.854 393.769,205.854 389.5,208.5C 390.987,204.193 392.987,200.193 395.5,196.5 Z"/></g>
<g><path style="opacity:1" fill="#aac7fa" d="M 118.5,195.5 C 120.127,199.996 121.46,204.663 122.5,209.5C 121.414,209.38 120.747,208.713 120.5,207.5C 119.444,203.556 118.777,199.556 118.5,195.5 Z"/></g>
<g><path style="opacity:1" fill="#ceddfb" d="M 333.5,202.5 C 333.104,205.721 331.771,208.388 329.5,210.5C 330.27,207.504 331.604,204.837 333.5,202.5 Z"/></g>
<g><path style="opacity:1" fill="#178df4" d="M 286.5,210.5 C 286.833,210.5 287.167,210.5 287.5,210.5C 300.876,209.852 313.876,210.519 326.5,212.5C 325.03,215.318 324.03,218.318 323.5,221.5C 321.824,222.183 321.157,223.517 321.5,225.5C 320.13,225.856 319.13,226.69 318.5,228C 316.429,231.309 314.762,234.809 313.5,238.5C 310.167,240.159 308.5,242.825 308.5,246.5C 306.821,246.285 305.821,246.952 305.5,248.5C 304.094,248.973 303.427,249.973 303.5,251.5C 298.486,252.769 293.486,252.769 288.5,251.5C 288.108,249.821 287.608,248.154 287,246.5C 286.5,234.505 286.333,222.505 286.5,210.5 Z"/></g>
<g><path style="opacity:1" fill="#d5e1fb" d="M 122.5,209.5 C 123.612,211.599 124.279,213.933 124.5,216.5C 122.837,214.562 122.171,212.228 122.5,209.5 Z"/></g>
<g><path style="opacity:1" fill="#bed2fa" d="M 329.5,210.5 C 328.241,214.647 326.241,218.314 323.5,221.5C 324.03,218.318 325.03,215.318 326.5,212.5C 327.5,211.833 328.5,211.167 329.5,210.5 Z"/></g>
<g><path style="opacity:1" fill="#c3d6fa" d="M 182.5,207.5 C 184.608,210.862 186.275,214.528 187.5,218.5C 187.5,219.5 187.5,220.5 187.5,221.5C 185.235,217.146 183.569,212.479 182.5,207.5 Z"/></g>
<g><path style="opacity:1" fill="#b8cffa" d="M 389.5,208.5 C 389.293,211.241 388.293,213.574 386.5,215.5C 386.707,212.759 387.707,210.426 389.5,208.5 Z"/></g>
<g><path style="opacity:1" fill="#178df4" d="M 222.5,222.5 C 222.5,236.167 222.5,249.833 222.5,263.5C 222.5,264.5 222.5,265.5 222.5,266.5C 219.838,268.268 216.838,268.935 213.5,268.5C 213.631,267.761 213.464,267.094 213,266.5C 211.349,264.79 209.516,263.456 207.5,262.5C 206.254,258.296 204.254,254.63 201.5,251.5C 200.833,251.5 200.5,251.167 200.5,250.5C 200.657,249.127 200.49,247.793 200,246.5C 197.184,242.367 195.018,237.867 193.5,233C 193.164,231.97 192.497,231.47 191.5,231.5C 191.099,227.595 189.766,224.262 187.5,221.5C 187.5,220.5 187.5,219.5 187.5,218.5C 198.451,216.522 209.784,215.856 221.5,216.5C 221.205,218.735 221.539,220.735 222.5,222.5 Z"/></g>
<g><path style="opacity:1" fill="#0e8cf4" d="M 40.5,218.5 C 68.1667,218.5 95.8333,218.5 123.5,218.5C 124.537,223.524 126.204,228.19 128.5,232.5C 129.065,234.42 130.065,236.087 131.5,237.5C 131.343,238.873 131.51,240.207 132,241.5C 133.232,244.412 134.732,247.078 136.5,249.5C 136.517,251.565 136.85,253.565 137.5,255.5C 105.21,254.515 72.8769,254.181 40.5,254.5C 40.5,242.5 40.5,230.5 40.5,218.5 Z"/></g>
<g><path style="opacity:1" fill="#0f8cf4" d="M 481.5,218.5 C 481.5,230.5 481.5,242.5 481.5,254.5C 443.5,254.5 405.5,254.5 367.5,254.5C 367.378,257.292 366.044,259.292 363.5,260.5C 365.464,256.263 367.797,252.263 370.5,248.5C 372.37,244.221 374.036,239.888 375.5,235.5C 376.458,235.047 377.292,234.381 378,233.5C 379.118,231.235 379.951,228.901 380.5,226.5C 382.539,225.089 383.539,223.089 383.5,220.5C 384.167,220.167 384.833,219.833 385.5,219.5C 417.456,218.515 449.456,218.181 481.5,218.5 Z"/></g>
<g><path style="opacity:1" fill="#d5e1fb" d="M 385.5,216.5 C 385.5,217.5 385.5,218.5 385.5,219.5C 384.833,219.833 384.167,220.167 383.5,220.5C 383.66,218.847 384.326,217.514 385.5,216.5 Z"/></g>
<g><path style="opacity:1" fill="#c7d8fb" d="M 383.5,220.5 C 383.539,223.089 382.539,225.089 380.5,226.5C 380.992,224.181 381.992,222.181 383.5,220.5 Z"/></g>
<g><path style="opacity:1" fill="#c5d6fa" d="M 323.5,221.5 C 323.34,223.153 322.674,224.486 321.5,225.5C 321.157,223.517 321.824,222.183 323.5,221.5 Z"/></g>
<g><path style="opacity:1" fill="#c1d4fa" d="M 187.5,221.5 C 189.766,224.262 191.099,227.595 191.5,231.5C 189.6,228.482 188.267,225.149 187.5,221.5 Z"/></g>
<g><path style="opacity:1" fill="#bed1f9" d="M 380.5,226.5 C 379.951,228.901 379.118,231.235 378,233.5C 377.292,234.381 376.458,235.047 375.5,235.5C 376.611,232.144 378.277,229.144 380.5,226.5 Z"/></g>
<g><path style="opacity:1" fill="#c5d6fa" d="M 127.5,225.5 C 129.432,229.195 130.765,233.195 131.5,237.5C 130.065,236.087 129.065,234.42 128.5,232.5C 128.326,230.139 127.993,227.806 127.5,225.5 Z"/></g>
<g><path style="opacity:1" fill="#bed1fa" d="M 321.5,225.5 C 319.582,230.343 316.916,234.677 313.5,238.5C 314.762,234.809 316.429,231.309 318.5,228C 319.13,226.69 320.13,225.856 321.5,225.5 Z"/></g>
<g><path style="opacity:1" fill="#c1d3fa" d="M 131.5,237.5 C 133.928,241.099 135.594,245.099 136.5,249.5C 134.732,247.078 133.232,244.412 132,241.5C 131.51,240.207 131.343,238.873 131.5,237.5 Z"/></g>
<g><path style="opacity:1" fill="#bed1f9" d="M 191.5,231.5 C 192.497,231.47 193.164,231.97 193.5,233C 195.018,237.867 197.184,242.367 200,246.5C 200.49,247.793 200.657,249.127 200.5,250.5C 196.728,244.619 193.728,238.286 191.5,231.5 Z"/></g>
<g><path style="opacity:1" fill="#b5cbf9" d="M 313.5,238.5 C 312.331,241.511 310.664,244.178 308.5,246.5C 308.5,242.825 310.167,240.159 313.5,238.5 Z"/></g>
<g><path style="opacity:1" fill="#c6d6fa" d="M 308.5,246.5 C 308.027,247.906 307.027,248.573 305.5,248.5C 305.821,246.952 306.821,246.285 308.5,246.5 Z"/></g>
<g><path style="opacity:1" fill="#adc5f8" d="M 375.5,235.5 C 374.036,239.888 372.37,244.221 370.5,248.5C 367.797,252.263 365.464,256.263 363.5,260.5C 361.619,264.976 361.119,269.642 362,274.5C 364.382,278.718 366.549,283.052 368.5,287.5C 361.76,280.976 359.26,272.976 361,263.5C 365.189,253.715 370.022,244.382 375.5,235.5 Z"/></g>
<g><path style="opacity:0.267" fill="#d9e3fb" d="M 305.5,248.5 C 305.573,250.027 304.906,251.027 303.5,251.5C 303.427,249.973 304.094,248.973 305.5,248.5 Z"/></g>
<g><path style="opacity:1" fill="#c6d6fa" d="M 288.5,251.5 C 293.486,252.769 298.486,252.769 303.5,251.5C 301.492,253.927 298.826,254.927 295.5,254.5C 292.389,254.988 290.056,253.988 288.5,251.5 Z"/></g>
<g><path style="opacity:1" fill="#0c86f2" d="M 40.5,254.5 C 72.8769,254.181 105.21,254.515 137.5,255.5C 137.5,256.5 137.5,257.5 137.5,258.5C 138.5,258.5 139.5,258.5 140.5,258.5C 140.678,261.216 141.178,263.883 142,266.5C 143.927,268.895 145.76,271.228 147.5,273.5C 147.66,275.153 148.326,276.486 149.5,277.5C 149.537,280.953 150.871,283.619 153.5,285.5C 153.557,286.609 153.89,287.609 154.5,288.5C 154.5,288.833 154.5,289.167 154.5,289.5C 153.883,289.389 153.383,289.056 153,288.5C 115.721,290.49 78.2208,291.157 40.5,290.5C 40.5,278.5 40.5,266.5 40.5,254.5 Z"/></g>
<g><path style="opacity:1" fill="#0c86f2" d="M 481.5,254.5 C 481.5,266.5 481.5,278.5 481.5,290.5C 445.165,290.333 408.832,290.5 372.5,291C 373.252,291.671 373.586,292.504 373.5,293.5C 371.933,292.319 371.099,290.653 371,288.5C 370.329,287.748 369.496,287.414 368.5,287.5C 366.549,283.052 364.382,278.718 362,274.5C 361.119,269.642 361.619,264.976 363.5,260.5C 366.044,259.292 367.378,257.292 367.5,254.5C 405.5,254.5 443.5,254.5 481.5,254.5 Z"/></g>
<g><path style="opacity:1" fill="#85adf6" d="M 136.5,249.5 C 138.204,252.256 139.537,255.256 140.5,258.5C 139.5,258.5 138.5,258.5 137.5,258.5C 137.5,257.5 137.5,256.5 137.5,255.5C 136.85,253.565 136.517,251.565 136.5,249.5 Z"/></g>
<g><path style="opacity:0.933" fill="#bfd1f9" d="M 201.5,251.5 C 204.254,254.63 206.254,258.296 207.5,262.5C 204.737,259.311 202.737,255.644 201.5,251.5 Z"/></g>
<g><path style="opacity:1" fill="#c8d7fa" d="M 207.5,262.5 C 209.516,263.456 211.349,264.79 213,266.5C 213.464,267.094 213.631,267.761 213.5,268.5C 210.833,267.167 208.833,265.167 207.5,262.5 Z"/></g>
<g><path style="opacity:1" fill="#cfdcfa" d="M 222.5,266.5 C 222.586,267.496 222.252,268.329 221.5,269C 218.633,269.801 215.966,269.634 213.5,268.5C 216.838,268.935 219.838,268.268 222.5,266.5 Z"/></g>
<g><path style="opacity:1" fill="#a7c1f7" d="M 140.5,258.5 C 143.231,263.256 145.564,268.256 147.5,273.5C 145.76,271.228 143.927,268.895 142,266.5C 141.178,263.883 140.678,261.216 140.5,258.5 Z"/></g>
<g><path style="opacity:1" fill="#cbd9f9" d="M 147.5,273.5 C 149.104,274.287 149.771,275.62 149.5,277.5C 148.326,276.486 147.66,275.153 147.5,273.5 Z"/></g>
<g><path style="opacity:1" fill="#95b4f6" d="M 149.5,277.5 C 151.873,279.579 153.206,282.246 153.5,285.5C 150.871,283.619 149.537,280.953 149.5,277.5 Z"/></g>
<g><path style="opacity:1" fill="#c7d6f9" d="M 153.5,285.5 C 154.906,285.973 155.573,286.973 155.5,288.5C 155.167,288.5 154.833,288.5 154.5,288.5C 153.89,287.609 153.557,286.609 153.5,285.5 Z"/></g>
<g><path style="opacity:1" fill="#0a7fef" d="M 154.5,289.5 C 154.238,290.978 154.571,292.311 155.5,293.5C 157.16,294.172 158.493,295.172 159.5,296.5C 161.046,298.882 161.713,301.549 161.5,304.5C 162.959,304.433 164.292,304.766 165.5,305.5C 166.219,307.764 166.552,310.097 166.5,312.5C 168.514,312.392 170.18,313.058 171.5,314.5C 172.08,316.749 173.413,318.415 175.5,319.5C 175.229,321.38 175.896,322.713 177.5,323.5C 177.738,325.404 178.738,326.738 180.5,327.5C 181.075,329.411 182.075,331.078 183.5,332.5C 178.048,331.88 172.548,331.547 167,331.5C 124.856,333.327 82.6895,333.994 40.5,333.5C 40.5,319.167 40.5,304.833 40.5,290.5C 78.2208,291.157 115.721,290.49 153,288.5C 153.383,289.056 153.883,289.389 154.5,289.5 Z"/></g>
<g><path style="opacity:1" fill="#0b80ef" d="M 481.5,290.5 C 481.5,304.833 481.5,319.167 481.5,333.5C 454.165,333.333 426.831,333.5 399.5,334C 401.16,335.488 402.16,337.321 402.5,339.5C 401.609,338.89 400.609,338.557 399.5,338.5C 398.817,333.748 396.817,329.748 393.5,326.5C 390.075,318.819 385.742,311.819 380.5,305.5C 380.262,303.596 379.262,302.262 377.5,301.5C 377.408,299.152 376.408,297.486 374.5,296.5C 374.443,295.391 374.11,294.391 373.5,293.5C 373.586,292.504 373.252,291.671 372.5,291C 408.832,290.5 445.165,290.333 481.5,290.5 Z"/></g>
<g><path style="opacity:1" fill="#7aa4f4" d="M 154.5,288.5 C 154.833,288.5 155.167,288.5 155.5,288.5C 157.362,290.891 158.696,293.558 159.5,296.5C 158.493,295.172 157.16,294.172 155.5,293.5C 154.571,292.311 154.238,290.978 154.5,289.5C 154.5,289.167 154.5,288.833 154.5,288.5 Z"/></g>
<g><path style="opacity:0.133" fill="#c2d2f9" d="M 368.5,287.5 C 369.496,287.414 370.329,287.748 371,288.5C 371.099,290.653 371.933,292.319 373.5,293.5C 374.11,294.391 374.443,295.391 374.5,296.5C 371.415,294.283 369.415,291.283 368.5,287.5 Z"/></g>
<g><path style="opacity:1" fill="#a5bef6" d="M 374.5,296.5 C 376.408,297.486 377.408,299.152 377.5,301.5C 375.75,300.341 374.75,298.674 374.5,296.5 Z"/></g>
<g><path style="opacity:1" fill="#cad7f9" d="M 303.5,301.5 C 298.114,300.339 292.78,300.339 287.5,301.5C 287.414,300.504 287.748,299.671 288.5,299C 294.033,297.777 299.033,298.611 303.5,301.5 Z"/></g>
<g><path style="opacity:1" fill="#cdd9f9" d="M 303.5,301.5 C 305.341,302.402 306.674,303.736 307.5,305.5C 305.227,305.043 303.894,303.71 303.5,301.5 Z"/></g>
<g><path style="opacity:1" fill="#cbd7f9" d="M 377.5,301.5 C 379.262,302.262 380.262,303.596 380.5,305.5C 378.738,304.738 377.738,303.404 377.5,301.5 Z"/></g>
<g><path style="opacity:1" fill="#97b3f5" d="M 159.5,296.5 C 162.241,298.975 164.241,301.975 165.5,305.5C 164.292,304.766 162.959,304.433 161.5,304.5C 161.713,301.549 161.046,298.882 159.5,296.5 Z"/></g>
<g><path style="opacity:1" fill="#b7c7f6" d="M 287.5,301.5 C 286.702,321.803 286.202,342.136 286,362.5C 285.728,365.254 285.228,367.921 284.5,370.5C 282.599,372.796 280.266,374.629 277.5,376C 273.415,376.233 269.415,376.733 265.5,377.5C 265.414,376.504 265.748,375.671 266.5,375C 273.669,376.018 279.503,373.851 284,368.5C 285.253,346.866 285.919,325.199 286,303.5C 286.278,302.584 286.778,301.918 287.5,301.5 Z"/></g>
<g><path style="opacity:1" fill="#bfcef8" d="M 307.5,305.5 C 310.522,306.522 312.522,308.522 313.5,311.5C 310.95,309.923 308.95,307.923 307.5,305.5 Z"/></g>
<g><path style="opacity:1" fill="#94b1f5" d="M 165.5,305.5 C 167.86,308.218 169.86,311.218 171.5,314.5C 170.18,313.058 168.514,312.392 166.5,312.5C 166.552,310.097 166.219,307.764 165.5,305.5 Z"/></g>
<g><path style="opacity:1" fill="#c1cff7" d="M 313.5,311.5 C 315.587,312.585 316.92,314.251 317.5,316.5C 315.413,315.415 314.08,313.749 313.5,311.5 Z"/></g>
<g><path style="opacity:1" fill="#bbccf8" d="M 380.5,305.5 C 385.742,311.819 390.075,318.819 393.5,326.5C 392.542,326.047 391.708,325.381 391,324.5C 387.958,317.836 384.458,311.502 380.5,305.5 Z"/></g>
<g><path style="opacity:1" fill="#c7d4f8" d="M 171.5,314.5 C 173.587,315.585 174.92,317.251 175.5,319.5C 173.413,318.415 172.08,316.749 171.5,314.5 Z"/></g>
<g><path style="opacity:1" fill="#c1cff7" d="M 317.5,316.5 C 319.587,317.585 320.92,319.251 321.5,321.5C 319.413,320.415 318.08,318.749 317.5,316.5 Z"/></g>
<g><path style="opacity:1" fill="#c7d4f8" d="M 175.5,319.5 C 176.674,320.514 177.34,321.847 177.5,323.5C 175.896,322.713 175.229,321.38 175.5,319.5 Z"/></g>
<g><path style="opacity:1" fill="#becef7" d="M 177.5,323.5 C 179.262,324.262 180.262,325.596 180.5,327.5C 178.738,326.738 177.738,325.404 177.5,323.5 Z"/></g>
<g><path style="opacity:1" fill="#117bee" d="M 303.5,301.5 C 303.894,303.71 305.227,305.043 307.5,305.5C 308.95,307.923 310.95,309.923 313.5,311.5C 314.08,313.749 315.413,315.415 317.5,316.5C 318.08,318.749 319.413,320.415 321.5,321.5C 322.419,324.089 324.086,326.089 326.5,327.5C 326.738,329.404 327.738,330.738 329.5,331.5C 329.359,336.015 331.359,339.015 335.5,340.5C 335.229,342.38 335.896,343.713 337.5,344.5C 339.14,347.782 341.14,350.782 343.5,353.5C 343.66,355.153 344.326,356.486 345.5,357.5C 346.08,359.749 347.413,361.415 349.5,362.5C 349.229,364.38 349.896,365.713 351.5,366.5C 351.738,368.404 352.738,369.738 354.5,370.5C 354.557,371.609 354.89,372.609 355.5,373.5C 353.866,372.793 352.532,371.627 351.5,370C 346.177,369.501 340.844,369.334 335.5,369.5C 335.5,366.833 335.5,364.167 335.5,361.5C 319.486,361.167 303.486,361.501 287.5,362.5C 287.234,365.65 286.234,368.317 284.5,370.5C 285.228,367.921 285.728,365.254 286,362.5C 286.202,342.136 286.702,321.803 287.5,301.5C 292.78,300.339 298.114,300.339 303.5,301.5 Z"/></g>
<g><path style="opacity:1" fill="#c8d4f8" d="M 321.5,321.5 C 323.914,322.911 325.581,324.911 326.5,327.5C 324.086,326.089 322.419,324.089 321.5,321.5 Z"/></g>
<g><path style="opacity:1" fill="#bfcdf7" d="M 326.5,327.5 C 328.262,328.262 329.262,329.596 329.5,331.5C 327.738,330.738 326.738,329.404 326.5,327.5 Z"/></g>
<g><path style="opacity:1" fill="#c3d0f8" d="M 180.5,327.5 C 182.882,329.215 184.882,331.215 186.5,333.5C 185.609,332.89 184.609,332.557 183.5,332.5C 182.075,331.078 181.075,329.411 180.5,327.5 Z"/></g>
<g><path style="opacity:1" fill="#097aee" d="M 183.5,332.5 C 184.609,332.557 185.609,332.89 186.5,333.5C 187.419,336.089 189.086,338.089 191.5,339.5C 192.95,341.923 194.95,343.923 197.5,345.5C 199.804,348.141 202.138,350.808 204.5,353.5C 149.844,354.881 95.1776,355.547 40.5,355.5C 40.5,348.167 40.5,340.833 40.5,333.5C 82.6895,333.994 124.856,333.327 167,331.5C 172.548,331.547 178.048,331.88 183.5,332.5 Z"/></g>
<g><path style="opacity:1" fill="#b9c9f7" d="M 393.5,326.5 C 396.817,329.748 398.817,333.748 399.5,338.5C 397.307,334.584 395.307,330.584 393.5,326.5 Z"/></g>
<g><path style="opacity:1" fill="#0a7aed" d="M 481.5,333.5 C 481.5,345.5 481.5,357.5 481.5,369.5C 457.833,369.5 434.167,369.5 410.5,369.5C 410.843,371.483 410.176,372.817 408.5,373.5C 409.167,370.833 409.833,368.167 410.5,365.5C 410.5,365.167 410.5,364.833 410.5,364.5C 410.073,361.99 409.407,359.657 408.5,357.5C 408.821,354.423 407.821,352.09 405.5,350.5C 404.679,346.716 403.679,343.049 402.5,339.5C 402.16,337.321 401.16,335.488 399.5,334C 426.831,333.5 454.165,333.333 481.5,333.5 Z"/></g>
<g><path style="opacity:1" fill="#bccbf7" d="M 186.5,333.5 C 188.914,334.911 190.581,336.911 191.5,339.5C 189.086,338.089 187.419,336.089 186.5,333.5 Z"/></g>
<g><path style="opacity:1" fill="#9db5f4" d="M 329.5,331.5 C 331.745,334.32 333.745,337.32 335.5,340.5C 331.359,339.015 329.359,336.015 329.5,331.5 Z"/></g>
<g><path style="opacity:1" fill="#bfcdf7" d="M 191.5,339.5 C 194.522,340.522 196.522,342.522 197.5,345.5C 194.95,343.923 192.95,341.923 191.5,339.5 Z"/></g>
<g><path style="opacity:1" fill="#cad6f8" d="M 335.5,340.5 C 336.674,341.514 337.34,342.847 337.5,344.5C 335.896,343.713 335.229,342.38 335.5,340.5 Z"/></g>
<g><path style="opacity:0.533" fill="#c9d4f8" d="M 399.5,338.5 C 400.609,338.557 401.609,338.89 402.5,339.5C 403.679,343.049 404.679,346.716 405.5,350.5C 403.133,346.767 401.133,342.767 399.5,338.5 Z"/></g>
<g><path style="opacity:1" fill="#c9d4f8" d="M 337.5,344.5 C 340.589,346.75 342.589,349.75 343.5,353.5C 341.14,350.782 339.14,347.782 337.5,344.5 Z"/></g>
<g><path style="opacity:1" fill="#b6c6f6" d="M 405.5,350.5 C 407.821,352.09 408.821,354.423 408.5,357.5C 406.935,355.491 405.935,353.157 405.5,350.5 Z"/></g>
<g><path style="opacity:1" fill="#b2c2f5" d="M 197.5,345.5 C 207.069,353.63 217.403,360.797 228.5,367C 235.154,369.894 241.82,372.394 248.5,374.5C 245.449,374.636 242.449,374.302 239.5,373.5C 234.474,371.474 229.474,369.474 224.5,367.5C 217.836,362.837 211.17,358.171 204.5,353.5C 202.138,350.808 199.804,348.141 197.5,345.5 Z"/></g>
<g><path style="opacity:1" fill="#d2dbf9" d="M 343.5,353.5 C 345.104,354.287 345.771,355.62 345.5,357.5C 344.326,356.486 343.66,355.153 343.5,353.5 Z"/></g>
<g><path style="opacity:1" fill="#0777ed" d="M 204.5,353.5 C 211.17,358.171 217.836,362.837 224.5,367.5C 163.173,368.643 101.84,369.309 40.5,369.5C 40.5,364.833 40.5,360.167 40.5,355.5C 95.1776,355.547 149.844,354.881 204.5,353.5 Z"/></g>
<g><path style="opacity:1" fill="#c1cef7" d="M 345.5,357.5 C 347.587,358.585 348.92,360.251 349.5,362.5C 347.413,361.415 346.08,359.749 345.5,357.5 Z"/></g>
<g><path style="opacity:1" fill="#d0d9f8" d="M 408.5,357.5 C 409.407,359.657 410.073,361.99 410.5,364.5C 409.883,364.389 409.383,364.056 409,363.5C 408.505,361.527 408.338,359.527 408.5,357.5 Z"/></g>
<g><path style="opacity:1" fill="#0673eb" d="M 355.5,373.5 C 358.38,375.732 361.713,377.065 365.5,377.5C 376.833,377.5 388.167,377.5 399.5,377.5C 403.025,377.211 406.025,375.878 408.5,373.5C 410.176,372.817 410.843,371.483 410.5,369.5C 434.167,369.5 457.833,369.5 481.5,369.5C 481.5,378.5 481.5,387.5 481.5,396.5C 481.656,400.764 480.989,404.764 479.5,408.5C 479.5,407.5 479.5,406.5 479.5,405.5C 431.5,405.5 383.5,405.5 335.5,405.5C 335.5,402.833 335.5,400.167 335.5,397.5C 316.167,397.5 296.833,397.5 277.5,397.5C 277.5,398.5 277.5,399.5 277.5,400.5C 260.167,400.5 242.833,400.5 225.5,400.5C 225.5,401.5 225.5,402.5 225.5,403.5C 164.506,404.615 103.506,405.282 42.5,405.5C 42.5,406.833 42.5,408.167 42.5,409.5C 40.9177,406.124 40.2511,402.458 40.5,398.5C 40.5,388.833 40.5,379.167 40.5,369.5C 101.84,369.309 163.173,368.643 224.5,367.5C 229.474,369.474 234.474,371.474 239.5,373.5C 242.449,374.302 245.449,374.636 248.5,374.5C 252.115,376.223 256.115,377.223 260.5,377.5C 262.167,377.5 263.833,377.5 265.5,377.5C 269.415,376.733 273.415,376.233 277.5,376C 280.266,374.629 282.599,372.796 284.5,370.5C 286.234,368.317 287.234,365.65 287.5,362.5C 303.486,361.501 319.486,361.167 335.5,361.5C 335.5,364.167 335.5,366.833 335.5,369.5C 340.844,369.334 346.177,369.501 351.5,370C 352.532,371.627 353.866,372.793 355.5,373.5 Z"/></g>
<g><path style="opacity:1" fill="#dce3fa" d="M 349.5,362.5 C 350.674,363.514 351.34,364.847 351.5,366.5C 349.896,365.713 349.229,364.38 349.5,362.5 Z"/></g>
<g><path style="opacity:1" fill="#bbc9f6" d="M 351.5,366.5 C 353.262,367.262 354.262,368.596 354.5,370.5C 352.738,369.738 351.738,368.404 351.5,366.5 Z"/></g>
<g><path style="opacity:1" fill="#cbd5f8" d="M 248.5,374.5 C 251.85,374.335 255.183,374.502 258.5,375C 259.756,375.417 260.423,376.25 260.5,377.5C 256.115,377.223 252.115,376.223 248.5,374.5 Z"/></g>
<g><path style="opacity:1" fill="#c0cdf7" d="M 354.5,370.5 C 356.925,373.046 359.925,374.546 363.5,375C 364.381,375.708 365.047,376.542 365.5,377.5C 361.713,377.065 358.38,375.732 355.5,373.5C 354.89,372.609 354.557,371.609 354.5,370.5 Z"/></g>
<g><path style="opacity:1" fill="#c3cff7" d="M 410.5,365.5 C 409.833,368.167 409.167,370.833 408.5,373.5C 406.025,375.878 403.025,377.211 399.5,377.5C 401.598,375.331 404.098,373.665 407,372.5C 407.728,369.813 408.895,367.48 410.5,365.5 Z"/></g>
<g><path style="opacity:1" fill="#056de9" d="M 479.5,408.5 C 477.356,421.45 472.023,432.783 463.5,442.5C 328.5,441.167 193.5,441.167 58.5,442.5C 50.2575,433.013 44.9242,422.013 42.5,409.5C 42.5,408.167 42.5,406.833 42.5,405.5C 103.506,405.282 164.506,404.615 225.5,403.5C 225.5,402.5 225.5,401.5 225.5,400.5C 242.833,400.5 260.167,400.5 277.5,400.5C 277.5,399.5 277.5,398.5 277.5,397.5C 296.833,397.5 316.167,397.5 335.5,397.5C 335.5,400.167 335.5,402.833 335.5,405.5C 383.5,405.5 431.5,405.5 479.5,405.5C 479.5,406.5 479.5,407.5 479.5,408.5 Z"/></g>
<g><path style="opacity:1" fill="#0d69e8" d="M 463.5,442.5 C 449.868,460.493 431.868,471.66 409.5,476C 360.031,477.153 310.531,477.653 261,477.5C 211.14,477.65 161.306,477.15 111.5,476C 89.4785,471.434 71.8118,460.267 58.5,442.5C 193.5,441.167 328.5,441.167 463.5,442.5 Z"/></g>
</svg>
