<?xml version="1.0" encoding="UTF-8"?>
<!DOCTYPE svg PUBLIC "-//W3C//DTD SVG 1.1//EN" "http://www.w3.org/Graphics/SVG/1.1/DTD/svg11.dtd">
<svg xmlns="http://www.w3.org/2000/svg" version="1.1" width="517px" height="509px" style="shape-rendering:geometricPrecision; text-rendering:geometricPrecision; image-rendering:optimizeQuality; fill-rule:evenodd; clip-rule:evenodd" xmlns:xlink="http://www.w3.org/1999/xlink">
<g><path style="opacity:1" fill="#28d246" d="M 473.5,86.5 C 330.237,85.5017 186.903,85.1684 43.5,85.5C 58.4476,51.752 84.4476,33.252 121.5,30C 212.833,29.3333 304.167,29.3333 395.5,30C 424.893,32.4405 448.06,45.6072 465,69.5C 468.372,74.9099 471.205,80.5765 473.5,86.5 Z"/></g>
<g><path style="opacity:1" fill="#28d045" d="M 43.5,85.5 C 186.903,85.1684 330.237,85.5017 473.5,86.5C 477.366,94.9724 479.532,103.972 480,113.5C 480.832,206.001 480.666,298.334 479.5,390.5C 479.5,305.167 479.5,219.833 479.5,134.5C 434.33,134.168 389.33,134.501 344.5,135.5C 287.163,98.2055 229.829,98.2055 172.5,135.5C 127.67,134.501 82.6698,134.168 37.5,134.5C 37.5,220.833 37.5,307.167 37.5,393.5C 36.3342,299.001 36.1675,204.334 37,109.5C 37.9272,101.121 40.0939,93.121 43.5,85.5 Z M 212.5,183.5 C 216.138,183.738 218.971,185.404 221,188.5C 224.995,197.651 228.495,206.984 231.5,216.5C 230.196,223.298 226.696,228.632 221,232.5C 220.262,236.402 220.928,240.068 223,243.5C 234.555,266.055 251.721,282.888 274.5,294C 276.167,294.667 277.833,294.667 279.5,294C 285.529,286.624 292.696,280.791 301,276.5C 307.748,280.241 314.248,284.408 320.5,289C 327.593,293.542 328.76,299.042 324,305.5C 318.744,312.758 312.244,318.591 304.5,323C 293.751,324.065 283.418,322.398 273.5,318C 227.395,299.577 199.062,266.244 188.5,218C 189.484,201.506 197.484,190.006 212.5,183.5 Z"/></g>
<g><path style="opacity:1" fill="#1ccb3d" d="M 172.5,135.5 C 119.604,179.709 103.104,235.043 123,301.5C 125.736,307.875 128.57,314.208 131.5,320.5C 128.004,344.468 124.671,368.468 121.5,392.5C 120.218,393.708 120.218,395.042 121.5,396.5C 122.107,396.376 122.44,396.043 122.5,395.5C 147.148,391.17 171.815,386.836 196.5,382.5C 253.844,405.752 306.51,398.085 354.5,359.5C 358.167,357.833 360.833,355.167 362.5,351.5C 398.55,311.455 410.05,265.122 397,212.5C 387.419,181.309 369.919,155.643 344.5,135.5C 389.33,134.501 434.33,134.168 479.5,134.5C 479.5,219.833 479.5,305.167 479.5,390.5C 473.616,436.887 447.616,464.387 401.5,473C 306.167,473.667 210.833,473.667 115.5,473C 75.9377,466.438 50.4377,443.938 39,405.5C 37.9847,401.56 37.4847,397.56 37.5,393.5C 37.5,307.167 37.5,220.833 37.5,134.5C 82.6698,134.168 127.67,134.501 172.5,135.5 Z M 212.5,183.5 C 197.484,190.006 189.484,201.506 188.5,218C 199.062,266.244 227.395,299.577 273.5,318C 283.418,322.398 293.751,324.065 304.5,323C 312.244,318.591 318.744,312.758 324,305.5C 328.76,299.042 327.593,293.542 320.5,289C 314.248,284.408 307.748,280.241 301,276.5C 292.696,280.791 285.529,286.624 279.5,294C 277.833,294.667 276.167,294.667 274.5,294C 251.721,282.888 234.555,266.055 223,243.5C 220.928,240.068 220.262,236.402 221,232.5C 226.696,228.632 230.196,223.298 231.5,216.5C 228.495,206.984 224.995,197.651 221,188.5C 218.971,185.404 216.138,183.738 212.5,183.5 Z"/></g>
<g><path style="opacity:1" fill="#20cb3e" d="M 151.5,366.5 C 150.566,365.432 150.232,364.099 150.5,362.5C 151.878,348.307 153.545,334.14 155.5,320C 155.496,316.498 154.496,313.331 152.5,310.5C 152.715,308.821 152.048,307.821 150.5,307.5C 126.049,251.822 135.382,202.655 178.5,160C 218.061,128.586 261.395,122.253 308.5,141C 359.013,166.922 382.513,208.422 379,265.5C 370.833,316.689 342.333,350.856 293.5,368C 260.952,376.919 229.619,373.753 199.5,358.5C 183.561,361.601 167.561,364.268 151.5,366.5 Z M 212.5,183.5 C 197.484,190.006 189.484,201.506 188.5,218C 199.062,266.244 227.395,299.577 273.5,318C 283.418,322.398 293.751,324.065 304.5,323C 312.244,318.591 318.744,312.758 324,305.5C 328.76,299.042 327.593,293.542 320.5,289C 314.248,284.408 307.748,280.241 301,276.5C 292.696,280.791 285.529,286.624 279.5,294C 277.833,294.667 276.167,294.667 274.5,294C 251.721,282.888 234.555,266.055 223,243.5C 220.928,240.068 220.262,236.402 221,232.5C 226.696,228.632 230.196,223.298 231.5,216.5C 228.495,206.984 224.995,197.651 221,188.5C 218.971,185.404 216.138,183.738 212.5,183.5 Z"/></g>
<g><path style="opacity:1" fill="#99e59b" d="M 150.5,307.5 C 152.048,307.821 152.715,308.821 152.5,310.5C 151.599,309.71 150.932,308.71 150.5,307.5 Z"/></g>
<g><path style="opacity:1" fill="#75dc7c" d="M 362.5,351.5 C 360.833,355.167 358.167,357.833 354.5,359.5C 356.833,356.5 359.5,353.833 362.5,351.5 Z"/></g>
<g><path style="opacity:1" fill="#b9efc3" d="M 150.5,362.5 C 150.232,364.099 150.566,365.432 151.5,366.5C 151.44,367.043 151.107,367.376 150.5,367.5C 149.212,365.701 149.212,364.035 150.5,362.5 Z"/></g>
<g><path style="opacity:1" fill="#8ee59e" d="M 121.5,392.5 C 121.263,393.791 121.596,394.791 122.5,395.5C 122.44,396.043 122.107,396.376 121.5,396.5C 120.218,395.042 120.218,393.708 121.5,392.5 Z"/></g>
</svg>
