<?xml version="1.0" encoding="UTF-8"?>
<!DOCTYPE svg PUBLIC "-//W3C//DTD SVG 1.1//EN" "http://www.w3.org/Graphics/SVG/1.1/DTD/svg11.dtd">
<svg xmlns="http://www.w3.org/2000/svg" version="1.1" width="525px" height="513px" style="shape-rendering:geometricPrecision; text-rendering:geometricPrecision; image-rendering:optimizeQuality; fill-rule:evenodd; clip-rule:evenodd" xmlns:xlink="http://www.w3.org/1999/xlink">
<g><path style="opacity:1" fill="#fe0702" d="M 467.5,61.5 C 467.427,63.0269 468.094,64.0269 469.5,64.5C 477.564,76.1793 482.397,89.1793 484,103.5C 484.667,198.167 484.667,292.833 484,387.5C 479.602,420.875 462.435,445.042 432.5,460C 424.477,463.423 416.143,465.756 407.5,467C 310.833,467.667 214.167,467.667 117.5,467C 84.0609,461.041 60.5609,442.541 47,411.5C 43.7393,403.124 41.7393,394.457 41,385.5C 40.3333,292.167 40.3333,198.833 41,105.5C 45.3156,70.5199 63.4823,45.6865 95.5,31C 102.605,28.1874 109.939,26.1874 117.5,25C 214.5,24.3333 311.5,24.3333 408.5,25C 433.362,29.0821 453.028,41.2488 467.5,61.5 Z M 260.5,144.5 C 294.904,144.892 329.237,146.726 363.5,150C 380.712,151.328 392.545,159.828 399,175.5C 400.317,180.1 401.317,184.766 402,189.5C 407.14,230.608 406.473,271.608 400,312.5C 396.573,326.259 388.073,335.093 374.5,339C 345.708,343.696 316.708,346.029 287.5,346C 245.054,347.059 202.721,345.392 160.5,341C 139.446,338.279 127.28,326.446 124,305.5C 119.35,265.501 119.35,225.501 124,185.5C 127.508,163.662 140.342,151.828 162.5,150C 195.249,146.83 227.915,144.997 260.5,144.5 Z"/></g>
<g><path style="opacity:1" fill="#ff857a" d="M 467.5,61.5 C 468.906,61.9731 469.573,62.9731 469.5,64.5C 468.094,64.0269 467.427,63.0269 467.5,61.5 Z"/></g>
<g><path style="opacity:1" fill="#ff9797" d="M 235.5,203.5 C 234.502,231.662 234.169,259.995 234.5,288.5C 233.825,275.073 233.492,260.907 233.5,246C 233.833,231.5 234.167,217 234.5,202.5C 235.107,202.624 235.44,202.957 235.5,203.5 Z"/></g>
<g><path style="opacity:1" fill="#fe1509" d="M 235.5,203.5 C 259.942,217.224 284.275,231.224 308.5,245.5C 284.141,260.347 259.475,274.68 234.5,288.5C 234.169,259.995 234.502,231.662 235.5,203.5 Z"/></g>
</svg>
