<?xml version="1.0" encoding="UTF-8" standalone="no"?>
<!-- Created with Inkscape (http://www.inkscape.org/) -->

<svg
   version="1.1"
   id="svg2"
   xml:space="preserve"
   width="3466.6621"
   height="2165.324"
   viewBox="0 0 3466.6621 2165.324"
   sodipodi:docname="5305453b59d186cf2b64a2e4b39f74f1.eps"
   xmlns:inkscape="http://www.inkscape.org/namespaces/inkscape"
   xmlns:sodipodi="http://sodipodi.sourceforge.net/DTD/sodipodi-0.dtd"
   xmlns="http://www.w3.org/2000/svg"
   xmlns:svg="http://www.w3.org/2000/svg"><defs
     id="defs6"><linearGradient
       x1="0"
       y1="0"
       x2="1"
       y2="0"
       gradientUnits="userSpaceOnUse"
       gradientTransform="matrix(1e-7,-3322.13,-3322.13,-1e-7,22802,9781.07)"
       spreadMethod="pad"
       id="linearGradient24"><stop
         style="stop-opacity:1;stop-color:#42ef62"
         offset="0"
         id="stop18" /><stop
         style="stop-opacity:1;stop-color:#19cb3c"
         offset="0.995169"
         id="stop20" /><stop
         style="stop-opacity:1;stop-color:#19cb3c"
         offset="1"
         id="stop22" /></linearGradient><linearGradient
       x1="0"
       y1="0"
       x2="1"
       y2="0"
       gradientUnits="userSpaceOnUse"
       gradientTransform="matrix(1e-7,-3322.13,-3322.13,-1e-7,3195.03,9781.07)"
       spreadMethod="pad"
       id="linearGradient62"><stop
         style="stop-opacity:1;stop-color:#39aef0"
         offset="0"
         id="stop58" /><stop
         style="stop-opacity:1;stop-color:#259ed8"
         offset="1"
         id="stop60" /></linearGradient><linearGradient
       x1="0"
       y1="0"
       x2="1"
       y2="0"
       gradientUnits="userSpaceOnUse"
       gradientTransform="matrix(1e-7,-3322.13,-3322.13,-1e-7,3195.03,14613.8)"
       spreadMethod="pad"
       id="linearGradient74"><stop
         style="stop-opacity:1;stop-color:#19aeff"
         offset="0"
         id="stop68" /><stop
         style="stop-opacity:1;stop-color:#0065e7"
         offset="0.995169"
         id="stop70" /><stop
         style="stop-opacity:1;stop-color:#0065e7"
         offset="1"
         id="stop72" /></linearGradient><linearGradient
       x1="0"
       y1="0"
       x2="1"
       y2="0"
       gradientUnits="userSpaceOnUse"
       gradientTransform="matrix(3076,-2769.64,-2769.64,-3076,21265.2,14336.5)"
       spreadMethod="pad"
       id="linearGradient94"><stop
         style="stop-opacity:1;stop-color:#0496fb"
         offset="0"
         id="stop82" /><stop
         style="stop-opacity:1;stop-color:#3f72ff"
         offset="0.220446"
         id="stop84" /><stop
         style="stop-opacity:1;stop-color:#784aff"
         offset="0.487204"
         id="stop86" /><stop
         style="stop-opacity:1;stop-color:#b038ee"
         offset="0.662646"
         id="stop88" /><stop
         style="stop-opacity:1;stop-color:#cd40be"
         offset="0.768465"
         id="stop90" /><stop
         style="stop-opacity:1;stop-color:#ff5a5a"
         offset="1"
         id="stop92" /></linearGradient><linearGradient
       x1="0"
       y1="0"
       x2="1"
       y2="0"
       gradientUnits="userSpaceOnUse"
       gradientTransform="matrix(637.953,-574.415,-574.415,-637.953,22489.8,13224.3)"
       spreadMethod="pad"
       id="linearGradient116"><stop
         style="stop-opacity:1;stop-color:#0496fb"
         offset="0"
         id="stop104" /><stop
         style="stop-opacity:1;stop-color:#3f72ff"
         offset="0.220446"
         id="stop106" /><stop
         style="stop-opacity:1;stop-color:#784aff"
         offset="0.487204"
         id="stop108" /><stop
         style="stop-opacity:1;stop-color:#b038ee"
         offset="0.662646"
         id="stop110" /><stop
         style="stop-opacity:1;stop-color:#cd40be"
         offset="0.768465"
         id="stop112" /><stop
         style="stop-opacity:1;stop-color:#ff5a5a"
         offset="1"
         id="stop114" /></linearGradient><linearGradient
       x1="0"
       y1="0"
       x2="1"
       y2="0"
       gradientUnits="userSpaceOnUse"
       gradientTransform="matrix(3073.89,-2767.75,-2767.75,-3073.89,6559.05,14335.5)"
       spreadMethod="pad"
       id="linearGradient138"><stop
         style="stop-opacity:1;stop-color:#0496fb"
         offset="0"
         id="stop120" /><stop
         style="stop-opacity:1;stop-color:#3f72ff"
         offset="0.138321"
         id="stop122" /><stop
         style="stop-opacity:1;stop-color:#784aff"
         offset="0.279474"
         id="stop124" /><stop
         style="stop-opacity:1;stop-color:#b038ee"
         offset="0.4211"
         id="stop126" /><stop
         style="stop-opacity:1;stop-color:#cd40be"
         offset="0.565567"
         id="stop128" /><stop
         style="stop-opacity:1;stop-color:#ff415a"
         offset="0.719807"
         id="stop130" /><stop
         style="stop-opacity:1;stop-color:#f7941e"
         offset="0.864734"
         id="stop132" /><stop
         style="stop-opacity:1;stop-color:#ffe800"
         offset="0.980676"
         id="stop134" /><stop
         style="stop-opacity:1;stop-color:#ffe800"
         offset="1"
         id="stop136" /></linearGradient><linearGradient
       x1="0"
       y1="0"
       x2="1"
       y2="0"
       gradientUnits="userSpaceOnUse"
       gradientTransform="matrix(1e-7,-3322.13,-3322.13,-1e-7,17901.1,14613.8)"
       spreadMethod="pad"
       id="linearGradient158"><stop
         style="stop-opacity:1;stop-color:#42ef62"
         offset="0"
         id="stop152" /><stop
         style="stop-opacity:1;stop-color:#19cb3c"
         offset="0.995169"
         id="stop154" /><stop
         style="stop-opacity:1;stop-color:#19cb3c"
         offset="1"
         id="stop156" /></linearGradient><linearGradient
       x1="0"
       y1="0"
       x2="1"
       y2="0"
       gradientUnits="userSpaceOnUse"
       gradientTransform="matrix(1e-7,-3322.13,-3322.13,-1e-7,22802,4948.4)"
       spreadMethod="pad"
       id="linearGradient182"><stop
         style="stop-opacity:1;stop-color:#00b7ea"
         offset="0"
         id="stop178" /><stop
         style="stop-opacity:1;stop-color:#017ddf"
         offset="1"
         id="stop180" /></linearGradient><linearGradient
       x1="0"
       y1="0"
       x2="1"
       y2="0"
       gradientUnits="userSpaceOnUse"
       gradientTransform="matrix(1e-7,-1250.6,-1250.6,-1e-7,22346.8,4370.6)"
       spreadMethod="pad"
       id="linearGradient192"><stop
         style="stop-opacity:1;stop-color:#ffffff"
         offset="0"
         id="stop188" /><stop
         style="stop-opacity:1;stop-color:#f1f2f2"
         offset="1"
         id="stop190" /></linearGradient><linearGradient
       x1="0"
       y1="0"
       x2="1"
       y2="0"
       gradientUnits="userSpaceOnUse"
       gradientTransform="matrix(1e-7,-1179.29,-1179.29,-1e-7,23293,3383.3)"
       spreadMethod="pad"
       id="linearGradient202"><stop
         style="stop-opacity:1;stop-color:#ffffff"
         offset="0"
         id="stop198" /><stop
         style="stop-opacity:1;stop-color:#f1f2f2"
         offset="1"
         id="stop200" /></linearGradient><linearGradient
       x1="0"
       y1="0"
       x2="1"
       y2="0"
       gradientUnits="userSpaceOnUse"
       gradientTransform="matrix(1e-7,-2100.79,-2100.79,-1e-7,22815.8,4326.7)"
       spreadMethod="pad"
       id="linearGradient212"><stop
         style="stop-opacity:1;stop-color:#ffffff"
         offset="0"
         id="stop208" /><stop
         style="stop-opacity:1;stop-color:#f1f2f2"
         offset="1"
         id="stop210" /></linearGradient><linearGradient
       x1="0"
       y1="0"
       x2="1"
       y2="0"
       gradientUnits="userSpaceOnUse"
       gradientTransform="matrix(1e-7,-1170.07,-1170.07,-1e-7,22797.6,3869.2)"
       spreadMethod="pad"
       id="linearGradient222"><stop
         style="stop-opacity:1;stop-color:#00b7ea"
         offset="0"
         id="stop218" /><stop
         style="stop-opacity:1;stop-color:#017ddf"
         offset="1"
         id="stop220" /></linearGradient><linearGradient
       x1="0"
       y1="0"
       x2="1"
       y2="0"
       gradientUnits="userSpaceOnUse"
       gradientTransform="matrix(2024.87,-3507.18,-3507.18,-2024.87,16891.3,5040.6)"
       spreadMethod="pad"
       id="linearGradient236"><stop
         style="stop-opacity:1;stop-color:#00b7ea"
         offset="0"
         id="stop232" /><stop
         style="stop-opacity:1;stop-color:#017ddf"
         offset="1"
         id="stop234" /></linearGradient></defs><sodipodi:namedview
     id="namedview4"
     pagecolor="#ffffff"
     bordercolor="#666666"
     borderopacity="1.0"
     inkscape:pageshadow="2"
     inkscape:pageopacity="0.0"
     inkscape:pagecheckerboard="0" /><g
     id="g8"
     inkscape:groupmode="layer"
     inkscape:label="ink_ext_XXXXXX"
     transform="matrix(1.3333333,0,0,-1.3333333,0,2165.324)"><g
       id="g10"
       transform="scale(0.1)"><g
         id="g12"
         transform="scale(1.59509)"><path
           d="M 16300,0 H 0 V 10181.2 H 16300 V 0"
           style="fill:#ffffff;fill-opacity:1;fill-rule:evenodd;stroke:none"
           id="path14" /></g><g
         id="g16"
         transform="scale(1.50098)"><path
           d="M 14527.8,6516.45 H 15855 c 245.9,0 445,-199.08 445,-441.11 V 4748.15 c 0,-245.93 -199.1,-445.01 -445,-445.01 h -1327.2 c -242,0 -445,199.08 -445,445.01 v 1327.19 c 0,242.03 203,441.11 445,441.11 v 0"
           style="fill:url(#linearGradient24);fill-opacity:1;fill-rule:evenodd;stroke:none"
           id="path26" /></g><g
         id="g28"
         transform="scale(1.46536)"><path
           d="m 15095.4,4977.15 105.1,18.77 63.8,11.25 c 90.1,-48.78 191.4,-75.05 296.4,-75.05 341.6,0 619.3,277.7 619.3,619.2 0,341.49 -277.7,619.18 -619.3,619.18 -341.5,0 -619.1,-277.69 -619.1,-619.18 0,-123.85 37.5,-236.43 97.5,-333.99 l -7.5,-56.3 -15,-108.82 -11.2,-90.07 z m 514.1,525.38 h -22.5 -127.5 v -168.87 h 127.5 c 56.3,0 131.4,18.76 131.4,90.06 0,0 -3.8,78.81 -108.9,78.81 z m 18.8,277.7 h -56.3 -112.5 v -168.88 h 127.5 v 0 h 3.8 c 22.5,0 120.1,7.51 127.6,90.07 0,0 -3.8,67.55 -90.1,78.81 z m -270.2,101.32 h 78.8 131.3 60.1 c 0,0 195.2,7.51 198.9,-176.38 0,0 7.5,-82.55 -82.6,-135.1 0,0 97.6,-41.27 97.6,-157.61 0,0 0,-202.64 -240.2,-180.13 h -3.7 -161.4 -78.8 -3.7 c -11.3,0 -18.8,7.51 -18.8,18.77 v 3.75 60.04 0 206.4 0 71.3 0 206.4 0 60.04 7.51 c 0,7.5 7.5,15.01 18.8,15.01 z m 202.6,409.04 c 409.1,0 739.3,-330.24 739.3,-739.27 0,-409.05 -330.2,-739.29 -739.3,-739.29 -112.5,0 -217.6,26.28 -311.4,67.56 l -394.1,-67.56 52.6,390.28 -3.8,7.51 c -52.5,101.32 -82.5,217.65 -82.5,341.5 0,409.03 330.2,739.27 739.2,739.27 v 0"
           style="fill:#ffffff;fill-opacity:1;fill-rule:evenodd;stroke:none"
           id="path30" /></g><g
         id="g32"
         transform="scale(1.20031)"><path
           d="m 14083.9,8148.77 h 1659.7 c 302.6,0 556.4,-248.96 556.4,-551.6 V 5937.52 c 0,-307.53 -253.8,-556.48 -556.4,-556.48 h -1659.7 c -307.5,0 -556.4,248.95 -556.4,556.48 v 1659.65 c 0,302.64 248.9,551.6 556.4,551.6 v 0"
           style="fill:#000000;fill-opacity:1;fill-rule:evenodd;stroke:none"
           id="path34" /></g><g
         id="g36"
         transform="scale(1.15829)"><path
           d="m 15988.3,7568.93 c -74.1,81.84 -117,190.95 -113.1,296.17 v 0 h -85.7 c 19.4,-116.9 97.4,-233.82 198.8,-296.17 z M 14885.4,6251.78 c 105.2,-109.12 253.3,-179.26 416.9,-179.26 315.7,0 572.9,253.3 572.9,565.05 v 639.09 c 116.9,-105.21 268.9,-155.87 424.8,-144.18 v 307.86 c -31.3,-7.8 -62.4,-7.8 -89.7,0 v -229.92 c -155.8,-11.7 -311.8,38.96 -428.6,144.19 v -639.1 c 0,-311.75 -253.3,-565.05 -569,-565.05 -120.8,0 -233.8,38.97 -327.3,101.32 z m 416.9,954.74 c -3.9,0 -7.7,0 -11.6,0 v -241.61 c -27.3,7.8 -50.7,11.69 -78,11.69 -148,0 -264.9,-116.9 -264.9,-261.09 0,-97.42 58.4,-187.05 140.2,-229.91 -31.1,42.86 -46.7,97.42 -46.7,151.97 0,144.19 116.9,261.09 261,261.09 27.3,0 54.6,-3.89 78,-11.69 v 311.75 c -23.4,3.91 -50.7,7.8 -78,7.8 v 0"
           style="fill:#ff2e56;fill-opacity:1;fill-rule:evenodd;stroke:none"
           id="path38" /></g><g
         id="g40"
         transform="scale(1.15192)"><path
           d="m 15876.9,7908.62 c -4,27.42 -7.9,50.94 -7.9,78.37 v 0 h -309.6 v -728.84 -505.48 0 c 0,-144.98 -117.5,-262.54 -262.5,-262.54 -47.1,0 -86.2,11.76 -125.4,31.35 51,-66.61 129.3,-109.72 215.5,-109.72 149,0 266.5,117.55 266.5,262.54 v 0 505.48 728.84 z m 423.1,-427.11 v 78.36 c -78.3,-15.67 -156.7,7.84 -223.3,50.94 62.7,-70.53 137.1,-117.55 223.3,-129.3 z m -1003.1,-156.74 c -317.4,0 -576,-254.71 -576,-572.1 0,-192.01 97.9,-364.41 246.9,-466.3 -94.1,101.89 -152.9,239.03 -152.9,387.93 0,309.56 246.9,564.26 560.4,572.09 v 70.54 c -27.5,3.92 -51,7.84 -78.4,7.84 v 0"
           style="fill:#23f1e7;fill-opacity:1;fill-rule:evenodd;stroke:none"
           id="path42" /></g><g
         id="g44"
         transform="scale(1.15192)"><path
           d="m 14967.8,6286.37 c 94,-62.69 207.6,-101.88 329.1,-101.88 317.4,0 572.1,254.71 572.1,568.18 v 642.63 c 117.5,-105.8 274.3,-156.74 431,-144.98 v 231.19 c -86.2,11.75 -160.6,58.77 -223.3,129.3 -101.9,62.7 -180.3,180.26 -199.8,297.81 h -223.4 v -728.84 -505.48 0 c 0,-144.99 -117.5,-262.54 -266.5,-262.54 -86.2,0 -164.5,43.11 -215.5,109.72 -82.3,43.11 -141,133.23 -141,231.19 0,144.99 117.5,262.54 266.4,262.54 27.4,0 50.9,-3.92 78.4,-11.76 v 242.94 c -313.5,-7.83 -560.4,-262.53 -560.4,-572.09 0,-148.9 58.8,-286.04 152.9,-387.93 v 0"
           style="fill:#ffffff;fill-opacity:1;fill-rule:evenodd;stroke:none"
           id="path46" /></g><path
         d="m 7102.8,9781.07 h 1986.25 c 369.13,0 667.94,-298.82 667.94,-662.09 v -1992.1 c 0,-369.13 -298.81,-667.95 -667.94,-667.95 H 7102.8 c -369.13,0 -667.94,298.82 -667.94,667.95 v 1992.1 c 0,363.27 298.81,662.09 667.94,662.09 v 0"
         style="fill:#4085fe;fill-opacity:1;fill-rule:evenodd;stroke:none"
         id="path48" /><path
         d="m 9112.49,7677.64 c 0,-111.33 -82.03,-123.05 -164.06,-52.74 l -269.52,240.23 c -58.59,46.87 -58.59,52.73 -58.59,123.04 v 269.52 c 0,70.31 0,76.17 58.59,123.04 l 269.52,240.23 c 82.03,70.31 164.06,58.59 164.06,-58.59 z M 7682.86,8685.41 h -480.45 c -64.46,0 -123.04,-52.74 -123.04,-123.04 v -193.36 -146.48 -351.54 c 0,-175.78 140.61,-316.4 316.39,-316.4 h 539.04 287.1 193.35 c 64.45,0 123.04,58.59 123.04,128.9 v 187.5 152.33 345.69 c 0,175.78 -140.62,316.4 -316.39,316.4 h -539.04"
         style="fill:#ffffff;fill-opacity:1;fill-rule:evenodd;stroke:none"
         id="path50" /><path
         d="m 12003.7,9781.07 h 1992.1 c 363.3,0 662.1,-298.82 662.1,-662.09 v -1992.1 c 0,-369.13 -298.8,-667.95 -662.1,-667.95 h -1992.1 c -369.1,0 -667.9,298.82 -667.9,667.95 v 1992.1 c 0,363.27 298.8,662.09 667.9,662.09 v 0"
         style="fill:#fe0000;fill-opacity:1;fill-rule:evenodd;stroke:none"
         id="path52" /><path
         d="m 12358.1,8856.24 c 208.3,16.67 454.2,25 641.7,25 v 0 0 c 187.4,0 429.1,-8.33 641.6,-25 245.8,-20.83 370.8,-62.49 404.2,-308.32 16.6,-112.5 25,-266.66 25,-424.99 v 0 c 0,-158.33 -8.4,-316.66 -25,-424.99 -33.4,-249.99 -158.4,-287.49 -404.2,-308.32 -212.5,-20.84 -454.2,-25 -641.6,-25 v 0 0 c -187.5,0 -433.4,4.16 -641.7,25 -245.8,20.83 -375,58.33 -408.3,308.32 -12.5,108.33 -20.8,266.66 -20.8,424.99 v 0 c 0,158.33 8.3,312.49 20.8,424.99 33.3,245.83 162.5,287.49 408.3,308.32 v 0"
         style="fill:#ffffff;fill-opacity:1;fill-rule:evenodd;stroke:none"
         id="path54" /><path
         d="m 12783.1,8443.75 558.3,-320.82 -558.3,-324.99 z"
         style="fill:#fe0000;fill-opacity:1;fill-rule:evenodd;stroke:none"
         id="path56" /><path
         d="m 2201.9,9781.07 h 1986.25 c 369.12,0 667.94,-298.82 667.94,-662.09 v -1992.1 c 0,-369.13 -298.82,-667.95 -667.94,-667.95 H 2201.9 c -369.12,0 -667.94,298.82 -667.94,667.95 v 1992.1 c 0,363.27 298.82,662.09 667.94,662.09 v 0"
         style="fill:url(#linearGradient62);fill-opacity:1;fill-rule:evenodd;stroke:none"
         id="path64" /><path
         d="m 2239.83,8150.33 c 434.54,182.23 960.19,441.55 1415.76,616.77 420.53,154.19 413.52,112.14 350.44,-308.39 -49.06,-336.42 -105.13,-672.83 -161.2,-1009.26 -21.03,-161.2 -105.13,-245.3 -280.35,-147.18 l -546.69,385.48 c -77.09,63.08 -56.06,112.14 7.02,175.22 l 504.62,476.59 c 133.17,133.17 70.09,182.23 -84.1,77.1 l -693.87,-469.58 c -98.12,-70.09 -203.25,-70.09 -315.39,-35.05 l -238.3,84.11 c -154.19,56.07 -35.04,119.14 42.06,154.19 v 0"
         style="fill:#ffffff;fill-opacity:1;fill-rule:evenodd;stroke:none"
         id="path66" /><path
         d="M 2203.65,14613.8 H 4186.4 c 368.48,0 666.77,-304.2 666.77,-666.8 v -1988.6 c 0,-368.5 -298.29,-666.8 -666.77,-666.8 H 2203.65 c -368.47,0 -666.77,298.3 -666.77,666.8 V 13947 c 0,362.6 298.3,666.8 666.77,666.8 v 0"
         style="fill:url(#linearGradient74);fill-opacity:1;fill-rule:evenodd;stroke:none"
         id="path76" /><path
         d="m 2837.8,11753.9 h 447.73 v 1032.9 h 330.72 l 66.14,417.2 h -396.86 v 315.4 c 0,117 111.94,183.2 218.79,183.2 h 193.34 v 346 l -345.98,15.2 c -330.72,20.4 -513.88,-239.1 -513.88,-549.5 V 13204 h -376.51 v -417.2 h 376.51 v -1032.9"
         style="fill:#ffffff;fill-opacity:1;fill-rule:evenodd;stroke:none"
         id="path78" /><g
         id="g80"
         transform="scale(1.5008)"><path
           d="m 14530.7,9737.29 h 1325 c 245.5,0 444.3,-202.65 444.3,-444.27 V 7968 c 0,-245.52 -198.8,-444.28 -444.3,-444.28 h -1325 c -241.6,0 -444.2,198.76 -444.2,444.28 v 1325.02 c 0,241.62 202.6,444.27 444.2,444.27 v 0"
           style="fill:url(#linearGradient94);fill-opacity:1;fill-rule:evenodd;stroke:none"
           id="path96" /></g><g
         id="g98"
         transform="scale(1.47012)"><path
           d="m 15510.3,9596.73 c 437.9,0 789.7,-344.59 789.7,-768.15 0,-423.56 -351.8,-768.15 -789.7,-768.15 -86.1,0 -168.7,14.36 -247.7,39.49 l -143.5,-61.03 c -82.6,-35.89 -114.9,-3.59 -114.9,96.91 v 100.51 c -172.3,143.58 -283.6,355.36 -283.6,592.27 0,423.56 355.4,768.15 789.7,768.15 v 0"
           style="fill:#ffffff;fill-opacity:1;fill-rule:evenodd;stroke:none"
           id="path100" /></g><g
         id="g102"
         transform="scale(1.44455)"><path
           d="m 15324.6,8787.63 193.6,295.89 c 25.6,43.85 51.2,87.68 106,98.64 40.2,10.96 73.1,-3.65 105.9,-29.22 l 171.7,-127.86 c 29.2,-21.92 36.6,-21.92 65.8,0 l 222.8,164.39 c 58.4,47.49 109.6,18.26 69.4,-47.49 l -211.9,-339.73 c 0,0 -47.4,-76.72 -113.2,-73.06 0,0 -47.5,0 -80.4,29.22 l -182.6,142.46 c -21.9,14.62 -32.9,14.62 -58.5,-3.65 l -230.1,-175.34 c -65.8,-51.15 -106,-7.31 -58.5,65.75 v 0"
           style="fill:url(#linearGradient116);fill-opacity:1;fill-rule:evenodd;stroke:none"
           id="path118" /></g><path
         d="M 7104.55,14613.8 H 9087.3 c 368.48,0 666.77,-304.2 666.77,-666.8 v -1988.6 c 0,-368.5 -298.29,-666.8 -666.77,-666.8 H 7104.55 c -368.48,0 -666.76,298.3 -666.76,666.8 V 13947 c 0,362.6 298.28,666.8 666.76,666.8 v 0"
         style="fill:url(#linearGradient138);fill-opacity:1;fill-rule:evenodd;stroke:none"
         id="path140" /><path
         d="m 7600.92,13849.4 h 990.01 c 222.88,0 404.29,-181.4 404.29,-404.3 v -984.8 c 0,-222.9 -181.41,-404.3 -404.29,-404.3 h -990.01 c -222.88,0 -404.29,181.4 -404.29,404.3 v 984.8 c 0,222.9 181.41,404.3 404.29,404.3 z m 492.41,-508 h 5.19 c 212.51,0 388.74,-176.2 388.74,-388.7 v 0 c 0,-217.7 -176.23,-393.9 -388.74,-393.9 h -5.19 c -212.51,0 -388.74,176.2 -388.74,393.9 v 0 c 0,212.5 176.23,388.7 388.74,388.7 z m 0,202.2 h 5.19 c 321.36,0 590.89,-269.5 590.89,-590.9 v 0 c 0,-326.5 -269.53,-590.9 -590.89,-590.9 h -5.19 c -321.36,0 -585.71,264.4 -585.71,590.9 v 0 c 0,321.4 264.35,590.9 585.71,590.9 z m 585.71,114 v 0 c 67.39,0 124.4,-57 124.4,-124.4 v 0 c 0,-67.4 -57.01,-124.4 -124.4,-124.4 v 0 c -72.56,0 -124.4,57 -124.4,124.4 v 0 c 0,67.4 51.84,124.4 124.4,124.4 z m -1083.3,378.4 h 1000.37 c 321.36,0 585.71,-264.3 585.71,-585.7 v -995.2 c 0,-321.4 -264.35,-585.7 -585.71,-585.7 H 7595.74 c -321.36,0 -585.71,264.3 -585.71,585.7 v 995.2 c 0,321.4 264.35,585.7 585.71,585.7 v 0"
         style="fill:#ffffff;fill-opacity:1;fill-rule:evenodd;stroke:none"
         id="path142" /><path
         d="m 12003.7,4948.4 h 1992.1 c 363.3,0 662.1,-298.8 662.1,-668 V 2294.2 c 0,-369.1 -298.8,-668 -662.1,-668 h -1992.1 c -369.1,0 -667.9,298.9 -667.9,668 v 1986.2 c 0,369.2 298.8,668 667.9,668 v 0"
         style="fill:#ffff00;fill-opacity:1;fill-rule:evenodd;stroke:none"
         id="path144" /><path
         d="m 13011.7,4364.7 c 103.7,0 682.1,-32.7 643.9,-725.8 0,0 180.1,16.4 240.2,-92.8 0,0 136.4,-207.4 -234.7,-354.7 0,0 81.9,-207.4 365.6,-343.8 0,0 125.6,-49.1 76.5,-169.2 0,0 -11,-65.5 -207.4,-136.4 -60.1,-21.9 -60.1,-21.9 -76.4,-65.5 -21.9,-54.6 -103.7,-114.6 -289.3,-92.8 0,0 -65.5,10.9 -120,-43.7 0,0 -158.3,-136.4 -398.4,-141.9 -234.7,5.5 -398.4,141.9 -398.4,141.9 -54.6,54.6 -114.6,43.7 -114.6,43.7 -191.1,-21.8 -267.5,38.2 -289.3,92.8 -21.8,43.6 -21.8,43.6 -76.4,65.5 -201.9,70.9 -207.4,136.4 -207.4,136.4 -49.1,120.1 71,169.2 71,169.2 283.8,136.4 371.1,343.8 371.1,343.8 -371.1,147.3 -234.7,354.7 -234.7,354.7 60,109.2 234.7,92.8 234.7,92.8 -32.8,693.1 545.7,725.8 644,725.8 v 0"
         style="fill:#000000;fill-opacity:1;fill-rule:evenodd;stroke:none"
         id="path146" /><path
         d="m 13011.7,4239.2 v 0 c 578.4,-43.6 529.3,-458.4 518.4,-791.3 0,0 32.8,-10.9 152.8,54.6 0,0 65.5,43.6 114.6,-5.5 0,0 60.1,-65.5 -60,-131 L 13541,3224.1 c 0,0 0,-283.7 458.5,-496.6 0,0 -11,-49.1 -234.7,-92.8 0,0 -38.2,-10.9 -60,-98.2 -16.4,-54.6 -125.6,-32.7 -180.1,-32.7 0,0 -114.6,0 -234.7,-103.7 0,0 -120.1,-76.4 -278.3,-87.4 v 0 c -158.3,11 -272.9,87.4 -272.9,87.4 -120.1,103.7 -240.1,103.7 -240.1,103.7 -49.2,0 -163.8,-21.9 -174.7,32.7 -21.8,87.3 -65.5,98.2 -65.5,98.2 -223.7,43.7 -234.6,92.8 -234.6,92.8 458.4,212.9 458.4,496.6 458.4,496.6 l -196.5,141.9 c -114.6,65.5 -54.6,131 -54.6,131 49.2,49.1 114.6,5.5 114.6,5.5 120.1,-65.5 152.9,-54.6 152.9,-54.6 -16.4,332.9 -60.1,747.7 513,791.3 v 0"
         style="fill:#ffffff;fill-opacity:1;fill-rule:evenodd;stroke:none"
         id="path148" /><g
         id="g150"
         transform="scale(1.20013)"><path
           d="m 14087.4,12176.8 h 1657 c 302.2,0 555.6,-253.5 555.6,-555.6 V 9964.22 c 0,-307.04 -253.4,-555.59 -555.6,-555.59 h -1657 c -306.9,0 -555.5,248.55 -555.5,555.59 v 1656.98 c 0,302.1 248.6,555.6 555.5,555.6 v 0"
           style="fill:url(#linearGradient158);fill-opacity:1;fill-rule:evenodd;stroke:none"
           id="path160" /></g><g
         id="g162"
         transform="scale(1.16469)"><path
           d="m 14784.5,10398.8 132.1,23.6 80.3,14.2 c 113.3,-61.4 236.1,-94.5 373,-94.5 429.7,0 779.1,349.4 779.1,779.1 0,429.6 -349.4,779 -779.1,779 -429.7,0 -779,-349.4 -779,-779 0,-155.8 47.2,-297.5 122.8,-420.2 l -9.5,-70.8 -18.9,-141.7 -14.1,-108.6 z m 585.4,1652.5 c 514.6,0 930.1,-415.5 930.1,-930.1 0,-514.7 -415.5,-930.1 -930.1,-930.1 -141.6,0 -273.8,28.3 -391.9,84.9 l -495.7,-84.9 66.1,491 -4.7,9.4 c -66.2,127.5 -103.9,273.9 -103.9,429.7 0,514.6 415.5,930.1 930.1,930.1 z m -330.5,-505.2 c 52,33.1 85,9.5 103.9,-42.5 l 47.2,-122.7 c 0,0 33.1,-66.1 -51.9,-132.2 -14.2,-9.5 -14.2,-9.5 -9.5,-33.1 18.9,-56.6 94.5,-226.6 335.2,-358.8 23.6,-14.2 28.4,-14.2 52,4.7 18.9,18.9 42.5,42.5 61.4,61.4 42.5,37.8 66.1,51.9 103.9,23.6 28.3,-18.9 56.6,-42.5 85,-61.4 28.3,-23.6 75.4,-51.9 28.3,-108.6 l -42.5,-51.9 c -61.4,-75.6 -113.3,-80.3 -193.6,-61.4 -306.9,80.3 -533.6,297.5 -632.7,604.4 -33.1,118 14.1,217.1 113.3,278.5 v 0"
           style="fill:#ffffff;fill-opacity:1;fill-rule:evenodd;stroke:none"
           id="path164" /></g><path
         d="m 7102.8,4948.4 h 1986.25 c 369.13,0 667.94,-298.8 667.94,-668 V 2294.2 c 0,-369.1 -298.81,-668 -667.94,-668 H 7102.8 c -369.13,0 -667.94,298.9 -667.94,668 v 1986.2 c 0,369.2 298.81,668 667.94,668 v 0"
         style="fill:#21ba52;fill-opacity:1;fill-rule:evenodd;stroke:none"
         id="path166" /><path
         d="m 8093,4263.9 c 568.93,0 1033.93,-377.5 1033.93,-837 0,-246.2 -125.82,-459.5 -333.7,-612.7 -432.18,-372 -672.88,-475.9 -672.88,-475.9 -93,-49.3 -109.41,-21.9 -98.47,65.6 10.94,54.7 21.88,125.8 21.88,125.8 10.94,49.3 -43.76,60.2 -65.65,65.7 h -10.94 v 0 0 c -514.23,49.2 -908.11,404.8 -908.11,831.5 0,459.5 465,837 1033.94,837 v 0"
         style="fill:#ffffff;fill-opacity:1;fill-rule:evenodd;stroke:none"
         id="path168" /><path
         d="m 8590.81,3268.3 v 109.4 h 207.89 v 82 h -207.89 v 104 h 207.89 v 87.5 h -306.35 v -465 h 306.35 v 82.1 z m -300.87,382.9 v -284.5 l -218.83,284.5 h -82.06 v -465 h 98.48 v 279 l 218.82,-279 h 82.06 v 465 z m -503.3,-465 h 98.47 v 465 h -98.47 z m -377.46,0 h 322.76 v 87.5 h -224.29 v 377.5 h -98.47 v -465"
         style="fill:#21ba52;fill-opacity:1;fill-rule:evenodd;stroke:none"
         id="path170" /><path
         d="m 2201.9,4948.4 h 1986.25 c 369.12,0 667.94,-298.8 667.94,-668 V 2294.2 c 0,-369.1 -298.82,-668 -667.94,-668 H 2201.9 c -369.12,0 -667.94,298.9 -667.94,668 v 1986.2 c 0,369.2 298.82,668 667.94,668 v 0"
         style="fill:#0b66c3;fill-opacity:1;fill-rule:evenodd;stroke:none"
         id="path172" /><path
         d="m 2867.67,3620.5 h 366.39 v -174 c 77.85,114.5 206.09,187.8 352.64,187.8 h 100.76 c 233.57,0 421.34,-192.4 421.34,-421.4 v -187.8 -224.4 -425.9 h -366.38 v 4.6 109.9 0 558.7 0 c -4.58,142 -100.76,251.9 -242.73,251.9 v 0 c -141.98,0 -261.05,-109.9 -265.63,-251.9 v 0 -485.4 -187.8 h -366.39 z m -407.6,632 c 123.65,0 224.41,-100.7 224.41,-224.4 0,-123.6 -100.76,-224.4 -224.41,-224.4 -123.66,0 -219.84,100.8 -219.84,224.4 0,123.7 96.18,224.4 219.84,224.4 z m -183.2,-632 h 370.97 V 2374.8 h -370.97 v 1245.7"
         style="fill:#ffffff;fill-opacity:1;fill-rule:evenodd;stroke:none"
         id="path174" /><g
         id="g176"
         transform="scale(1.50098)"><path
           d="M 14527.8,3296.77 H 15855 c 245.9,0 445,-199.06 445,-445.03 V 1528.47 c 0,-245.91 -199.1,-445.05 -445,-445.05 h -1327.2 c -242,0 -445,199.14 -445,445.05 v 1323.27 c 0,245.97 203,445.03 445,445.03 v 0"
           style="fill:url(#linearGradient182);fill-opacity:1;fill-rule:evenodd;stroke:none"
           id="path184" /></g><g
         id="g186"
         transform="scale(1.40933)"><path
           d="m 15856.3,3101.19 c 245.2,0 443.7,-198.47 443.7,-443.69 0,-245.22 -198.5,-443.68 -443.7,-443.68 -245.2,0 -443.7,198.46 -443.7,443.68 0,245.22 198.5,443.69 443.7,443.69 v 0"
           style="fill:url(#linearGradient192);fill-opacity:1;fill-rule:evenodd;stroke:none"
           id="path194" /></g><g
         id="g196"
         transform="scale(1.46519)"><path
           d="m 15899.4,1504.24 c -220.8,0 -404.3,179.71 -404.3,400.56 0,220.86 183.5,404.32 404.3,404.32 220.9,0 400.6,-183.46 400.6,-404.32 0,-220.85 -179.7,-400.56 -400.6,-400.56 v 0"
           style="fill:url(#linearGradient202);fill-opacity:1;fill-rule:evenodd;stroke:none"
           id="path204" /></g><g
         id="g206"
         transform="scale(1.46418)"><path
           d="m 15580.7,2955.02 c 397.1,0 719.3,-322.15 719.3,-715.48 0,-397.08 -322.2,-719.31 -719.3,-719.31 -393.3,0 -715.5,322.23 -715.5,719.31 0,393.33 322.2,715.48 715.5,715.48 v 0"
           style="fill:url(#linearGradient212);fill-opacity:1;fill-rule:evenodd;stroke:none"
           id="path214" /></g><g
         id="g216"
         transform="scale(1.42851)"><path
           d="m 15893,2245.56 c 57.6,-23.03 111.4,-38.43 153.6,-80.64 69.1,-69.1 15.4,-149.74 -92.1,-149.74 -84.5,-3.85 -226.6,107.45 -268.8,15.33 -61.4,-130.56 230.3,-149.74 330.2,-138.26 115.2,15.4 184.3,61.46 211.2,149.81 72.9,241.86 -161.3,280.29 -318.7,364.72 -53.8,30.73 -88.3,84.49 -53.8,126.77 61.4,80.57 176.7,38.36 257.3,15.33 145.9,-42.21 176.6,184.32 -180.5,157.44 -122.9,-11.55 -207.3,-57.62 -238,-153.59 -50,-149.74 61.3,-253.41 199.6,-307.17 v 0"
           style="fill:url(#linearGradient222);fill-opacity:1;fill-rule:evenodd;stroke:none"
           id="path224" /></g><path
         d="M 12005.4,14613.8 H 13994 c 362.7,0 661,-304.2 661,-666.8 v -1988.6 c 0,-368.5 -298.3,-666.8 -661,-666.8 h -1988.6 c -368.4,0 -666.7,298.3 -666.7,666.8 V 13947 c 0,362.6 298.3,666.8 666.7,666.8 v 0"
         style="fill:#1aa2f8;fill-opacity:1;fill-rule:evenodd;stroke:none"
         id="path226" /><path
         d="m 13017.3,13268.5 c -87.7,462.1 467.9,737 795.4,403.6 0,0 146.3,40.9 274.9,122.8 0,0 -46.8,-157.9 -204.7,-257.3 0,0 175.5,23.4 251.5,70.2 0,0 -76,-157.9 -216.4,-216.4 76,-1058.7 -1064.5,-1702 -1988.6,-1175.7 0,0 456.2,-23.3 649.2,198.9 0,0 -280.7,-23.4 -421.1,315.8 0,0 105.3,-40.9 210.6,11.7 0,0 -327.6,52.7 -356.8,444.6 0,0 105.3,-81.9 222.3,-52.7 0,0 -362.7,216.4 -158,608.3 0,0 386.1,-491.3 941.7,-473.8 v 0"
         style="fill:#ffffff;fill-opacity:1;fill-rule:evenodd;stroke:none"
         id="path228" /><g
         id="g230"
         transform="scale(1.20031)"><path
           d="m 14088.8,4122.59 h 1654.8 c 307.5,0 556.4,-248.93 556.4,-556.52 V 1906.42 c 0,-302.59 -248.9,-551.61 -556.4,-551.61 h -1654.8 c -307.6,0 -556.5,249.02 -556.5,551.61 v 1659.65 c 0,307.59 248.9,556.52 556.5,556.52 v 0"
           style="fill:url(#linearGradient236);fill-opacity:1;fill-rule:evenodd;stroke:none"
           id="path238" /></g><g
         id="g240"
         transform="scale(1.16493)"><path
           d="m 14530.7,3219.17 c 51.4,107.65 121.6,205.94 215.3,290.24 93.6,84.21 201.3,145.07 313.6,187.22 117.1,37.43 238.7,56.14 360.4,51.5 117,-9.35 238.8,-37.42 351.1,-93.65 107.7,-51.42 206,-121.64 290.2,-215.29 84.3,-93.66 145.1,-201.3 182.6,-313.58 42.1,-117.09 56.1,-238.73 51.5,-360.46 -9.4,-117 -37.5,-238.72 -89,-351.09 -51.5,-107.65 -126.3,-205.94 -220,-290.15 -93.6,-84.3 -201.3,-145.16 -313.6,-182.59 -112.3,-42.14 -238.7,-56.14 -355.8,-51.5 -121.6,9.36 -243.3,37.43 -351,88.93 -107.6,51.51 -206,126.36 -290.2,220.02 -84.3,93.65 -145.1,201.29 -187.2,313.58 -37.5,112.37 -56.3,238.73 -51.5,355.81 9.3,121.64 37.4,243.37 93.6,351.01 z m 482.1,-177.86 c 0,42.15 0,79.58 4.7,121.72 14,145.08 60.8,280.88 126.4,407.24 121.7,-70.22 234,-159.15 327.6,-271.52 23.4,-32.79 46.8,-65.5 70.3,-102.92 -79.6,-42.15 -163.9,-79.58 -252.9,-107.74 -93.5,-28.07 -187.2,-42.06 -276.1,-46.78 z m 177.9,-603.82 c 79.5,46.79 163.8,84.22 257.4,112.37 88.9,28.07 182.6,42.06 271.5,46.79 0,-42.15 0,-84.3 -4.7,-121.73 -14,-145.07 -56.1,-280.88 -121.6,-407.24 -126.5,65.59 -238.8,159.16 -327.7,271.52 -28.2,32.79 -51.5,65.5 -74.9,98.29 z m 524.2,257.44 c -98.3,-4.72 -196.6,-18.71 -294.9,-46.78 -98.3,-32.79 -191.9,-74.94 -276.1,-121.72 -32.8,60.86 -60.9,131.08 -84.3,201.3 -18.7,70.21 -32.7,140.43 -42.1,215.29 98.3,0 201.2,18.71 299.5,46.78 98.3,28.07 192,70.22 276.3,121.73 32.7,-65.5 60.7,-131.08 79.5,-201.3 23.4,-70.22 37.5,-145.08 42.1,-215.3 z m 154.5,795.76 c -46.9,32.8 -88.9,60.87 -140.4,84.21 -98.3,46.88 -206,74.94 -313.7,79.58 -65.5,4.72 -135.7,0 -196.6,-9.36 121.8,-74.85 234.1,-168.51 327.7,-285.51 28.1,-32.79 56.2,-70.22 79.6,-107.64 14,13.99 32.8,28.07 46.8,37.42 74.9,60.87 140.4,126.36 196.6,201.3 z m 313.6,-865.97 c 9.4,46.78 18.7,98.29 23.4,145.07 4.7,112.37 -9.3,220.01 -46.8,327.66 -37.5,98.38 -93.6,196.67 -168.5,280.87 -14,18.72 -32.8,32.8 -46.8,51.51 -60.9,-79.57 -131.1,-154.43 -206,-215.29 -23.4,-18.71 -42.1,-32.79 -60.8,-46.87 37.4,-74.85 70.2,-149.8 93.6,-229.37 23.4,-79.49 37.5,-163.79 46.8,-243.37 23.4,0 51.5,0 74.9,-4.72 98.3,-9.35 196.6,-32.7 290.2,-65.49 z m -491.5,-580.38 c 84.3,37.42 163.8,84.21 234.1,149.7 84.3,74.94 149.8,163.88 196.5,262.17 14.1,23.43 23.5,46.78 32.8,70.22 -88.9,32.79 -177.8,56.14 -271.5,65.49 -23.3,0 -42.1,4.73 -60.9,4.73 0,-46.79 -4.6,-88.94 -9.3,-131.09 -14,-149.79 -56.2,-290.23 -121.7,-421.22 z m -823.8,98.28 c 42.1,-28.15 89,-56.22 135.7,-79.57 98.3,-46.87 206,-74.94 318.3,-84.3 65.5,0 131.1,0 196.6,14.08 -126.3,74.85 -238.7,168.51 -332.3,285.51 -28.1,32.79 -51.5,70.22 -74.9,107.65 -18.7,-14 -37.4,-28.07 -51.5,-42.15 -74.9,-56.14 -135.7,-126.36 -191.9,-201.22 z m -318.3,870.62 c -9.3,-51.51 -18.7,-98.29 -18.7,-149.8 -9.4,-107.64 9.4,-220.01 42.1,-322.94 37.5,-103.01 93.6,-196.66 168.5,-280.87 14.1,-18.72 32.8,-32.79 46.8,-51.51 60.9,79.58 131,149.8 210.6,215.3 18.8,14.07 37.5,32.79 60.9,46.86 -37.5,70.22 -70.2,149.8 -93.6,229.38 -23.4,79.57 -42.1,159.15 -46.9,243.36 -28,0 -51.4,0 -79.5,4.72 -98.3,9.36 -196.6,32.71 -290.2,65.5 z m 257.5,430.67 c -84.3,-74.94 -149.8,-163.87 -196.6,-262.16 -9.4,-23.44 -23.5,-46.79 -32.8,-74.86 88.9,-28.15 177.9,-51.5 271.5,-60.86 23.4,-4.72 42.1,-4.72 65.5,-4.72 0,42.15 0,88.93 4.6,131.08 14.1,149.8 56.3,290.23 121.8,421.23 -84.2,-37.43 -163.8,-84.21 -234,-149.71 v 0"
           style="fill:#ffffff;fill-opacity:1;fill-rule:evenodd;stroke:none"
           id="path242" /></g></g></g></svg>
